<?xml version="1.0" encoding="UTF-8"?>
<svg width="134px" height="187px" viewBox="0 0 134 187" version="1.1" xmlns="http://www.w3.org/2000/svg" xmlns:xlink="http://www.w3.org/1999/xlink">
    <!-- Generator: Sketch 48.2 (47327) - http://www.bohemiancoding.com/sketch -->
    <title>01-top</title>
    <desc>Created with Sketch.</desc>
    <defs>
        <polygon id="path-1" points="92.9922352 0.932929889 46.0154287 0.932929889 46.0154287 28.3100568 92.9922352 28.3100568 92.9922352 0.932929889"></polygon>
    </defs>
    <g id="Desktop-HD-Copy-17" stroke="none" stroke-width="1" fill="none" fill-rule="evenodd" transform="translate(-901.000000, -1609.000000)">
        <g id="Group-6-Copy" transform="translate(788.000000, 1608.000000)">
            <g id="Page-1">
                <g id="Top" transform="translate(0.000000, 0.314303)">
                    <g id="01-top" transform="translate(113.000000, 0.000000)">
                        <path d="M27.8305484,183.834334 L5.98377419,171.237286 C-1.75622581,166.747249 -1.75622581,155.522156 5.98377419,151.03212 L85.7632,104.764784 C89.3835226,102.644489 93.7528774,102.644489 97.3732,104.764784 L129.33191,123.099101 C135.324168,126.591352 135.324168,135.197256 129.33191,138.689507 L51.0505484,183.959057 C43.9347419,187.950201 35.0711935,187.950201 27.8305484,183.834334" id="Fill-27" fill="#D2CFC6"></path>
                        <g id="Group-4">
                            <path d="M27.8305484,178.345469 L5.98377419,165.748421 C-1.75622581,161.258384 -1.75622581,150.033292 5.98377419,145.543255 L85.7632,99.2759188 C89.3835226,97.1556236 93.7528774,97.1556236 97.3732,99.2759188 L129.33191,117.610236 C135.324168,121.102487 135.324168,129.708391 129.33191,133.200642 L51.0505484,178.470192 C43.9347419,182.461336 35.0711935,182.461336 27.8305484,178.345469" id="Fill-29" fill="#F6F1E6"></path>
                            <path d="M27.6517742,178.659771 L5.805,166.062723 C-1.935,161.572686 -1.935,150.347594 5.805,145.857557 L85.5844258,99.5902214 C89.2047484,97.4699262 93.5741032,97.4699262 97.1944258,99.5902214 L129.153135,117.924539 C135.145394,121.41679 135.145394,130.022694 129.153135,133.514945 L50.8717742,178.784494 C43.7559677,182.775638 34.8924194,182.775638 27.6517742,178.659771" id="Fill-29" fill="#F6F1E6"></path>
                            <polygon id="Fill-69" fill="#9B9372" points="70.3725845 138.217928 67.3340103 136.633943 66.4426619 40.8602089 69.4812361 43.1039801"></polygon>
                            <polygon id="Fill-71" fill="#7F785A" points="70.3725845 137.939796 72.9492555 136.421914 72.5859748 40.8602089 69.4812361 43.1039801"></polygon>
                            <polygon id="Fill-73" fill="#355F37" points="69.5038319 87.9817742 56.41699 80.4946376 56.41699 77.0310731 69.7272932 72.7842465 82.5906739 77.0310731 82.5906739 80.4946376"></polygon>
                            <polygon id="Fill-75" fill="#46824B" points="69.5038319 84.8528421 46.0154287 71.3315948 46.0154287 65.1852332 69.8396481 57.587093 92.9922352 65.1852332 92.9922352 71.3315948"></polygon>
                            <polygon id="Fill-77" fill="#4F9958" points="69.5038319 80.159631 36.508961 61.0507823 36.508961 52.3351218 70.0631094 41.7199262 102.498703 52.3351218 102.498703 61.0507823"></polygon>
                            <polyline id="Fill-79" fill="#FEFEFE" points="61.5625919 65.6327402 60.4440371 66.3037513 58.9896661 56.1338177 77.8927435 56.1338177 58.9896661 67.0857661"></polyline>
                            <polygon id="Fill-81" fill="#59B367" points="69.5038319 71.8904797 24.5406739 45.9655055 24.5406739 34.1205387 70.1754642 19.7062731 114.354635 34.1205387 114.354635 45.9655055"></polygon>
                            <polygon id="Fill-83" fill="#55A960" points="69.5038319 19.9291535 69.5038319 71.8901055 114.354635 45.9651314 114.354635 34.1201646 70.1754642 19.7058989"></polygon>
                            <polygon id="Fill-85" fill="#59B367" points="69.5038319 60.0455129 24.5406739 34.1205387 70.1754642 7.86130627 114.354635 34.1205387"></polygon>
                            <polygon id="Fill-87" fill="#4F9958" points="69.5038319 50.1003306 36.508961 31.1037328 36.508961 22.3880723 70.0631094 11.7716295 102.498703 22.3880723 102.498703 31.1037328"></polygon>
                            <polygon id="Fill-89" fill="#4C9052" points="69.5038319 11.883631 69.5038319 50.1000812 102.498703 31.1034834 102.498703 22.3878229 70.0631094 11.7713801"></polygon>
                            <polygon id="Fill-91" fill="#4F9958" points="69.5038319 41.4959232 36.508961 22.3870745 70.0631094 3.05621845 102.498703 22.3870745"></polygon>
                            <polygon id="Fill-93" fill="#46824B" points="69.5038319 34.4560443 46.0154287 20.934797 46.0154287 14.7884354 69.8396481 7.1902952 92.9922352 14.7884354 92.9922352 20.934797"></polygon>
                            <polygon id="Fill-95" fill="#407345" points="69.5038319 7.30204723 69.5038319 34.4555454 92.9922352 20.9342982 92.9922352 14.7891838 69.8396481 7.18979631"></polygon>
                            <mask id="mask-2" fill="white">
                                <use xlink:href="#path-1"></use>
                            </mask>
                            <g id="Clip-98"></g>
                            <polygon id="Fill-97" fill="#46824B" mask="url(#mask-2)" points="69.5038319 28.3100568 46.0154287 14.7888096 69.8396481 0.932056827 92.9922352 14.7888096"></polygon>
                            <polygon id="Fill-100" fill="#355F37" mask="url(#mask-2)" points="69.5038319 21.0466738 56.41699 13.5595373 56.41699 10.0959727 69.7272932 5.84914613 82.5906739 10.0959727 82.5906739 13.5595373"></polygon>
                            <polygon id="Fill-102" fill="#2C4C2D" mask="url(#mask-2)" points="69.5038319 5.96102288 69.5038319 21.0462996 82.5906739 13.5591631 82.5906739 10.0955985 69.7272932 5.84877196"></polygon>
                            <polygon id="Fill-104" fill="#355F37" mask="url(#mask-2)" points="69.5038319 17.5824856 56.41699 10.0953491 69.7272932 2.38495793 82.5906739 10.0953491"></polygon>
                        </g>
                    </g>
                </g>
            </g>
        </g>
    </g>
</svg>