<?xml version="1.0" encoding="UTF-8"?>
<svg width="134px" height="157px" viewBox="0 0 134 157" version="1.1" xmlns="http://www.w3.org/2000/svg" xmlns:xlink="http://www.w3.org/1999/xlink">
    <!-- Generator: Sketch 48.2 (47327) - http://www.bohemiancoding.com/sketch -->
    <title>02-top</title>
    <desc>Created with Sketch.</desc>
    <defs></defs>
    <g id="Desktop-HD-Copy-17" stroke="none" stroke-width="1" fill="none" fill-rule="evenodd" transform="translate(-788.000000, -1704.000000)">
        <g id="Group-6-Copy" transform="translate(788.000000, 1608.000000)">
            <g id="Page-1">
                <g id="Top" transform="translate(0.000000, 0.314303)">
                    <g id="02-top" transform="translate(0.000000, 96.000000)">
                        <path d="M27.6517742,153.35819 L5.805,140.761142 C-1.935,136.271106 -1.935,125.046013 5.805,120.555976 L85.5844258,74.2886406 C89.2047484,72.1683454 93.5741032,72.1683454 97.1944258,74.2886406 L129.153135,92.6229579 C135.145394,96.1152089 135.145394,104.721113 129.153135,108.213364 L50.8717742,153.482914 C43.7559677,157.474058 34.8924194,157.474058 27.6517742,153.35819" id="Fill-9" fill="#D2CFC6"></path>
                        <path d="M27.6517742,148.369261 L5.805,135.772213 C-1.935,131.282176 -1.935,120.057083 5.805,115.567046 L85.5844258,69.2997107 C89.2047484,67.1794155 93.5741032,67.1794155 97.1944258,69.2997107 L129.153135,87.634028 C135.145394,91.126279 135.145394,99.732183 129.153135,103.224434 L50.8717742,148.493984 C43.7559677,152.485128 34.8924194,152.485128 27.6517742,148.369261" id="Fill-11" fill="#F6F1E6"></path>
                        <path d="M27.6517742,147.659771 L5.805,135.062723 C-1.935,130.572686 -1.935,119.347594 5.805,114.857557 L85.5844258,68.5902214 C89.2047484,66.4699262 93.5741032,66.4699262 97.1944258,68.5902214 L129.153135,86.9245387 C135.145394,90.4167897 135.145394,99.0226937 129.153135,102.514945 L50.8717742,147.784494 C43.7559677,151.775638 34.8924194,151.775638 27.6517742,147.659771" id="Fill-11" fill="#F6F1E6"></path>
                        <polygon id="Fill-33" fill="#9B9372" points="45.8591255 125.153774 42.8205513 123.569789 41.9666545 40.2671321 45.0052287 42.5109033"></polygon>
                        <polygon id="Fill-35" fill="#7F785A" points="45.8591255 125.220127 48.4357965 123.702245 48.1099674 40.2673815 45.0052287 42.5111528"></polygon>
                        <polygon id="Fill-37" fill="#355F37" points="45.0278245 87.3890716 31.9409826 79.9019351 31.9409826 76.4383705 45.2512858 72.1915439 58.1146665 76.4383705 58.1146665 79.9019351"></polygon>
                        <polygon id="Fill-39" fill="#46824B" points="45.0278245 84.2601395 21.5394213 70.7388923 21.5394213 64.5925306 45.3636406 56.9943904 68.5162277 64.5925306 68.5162277 70.7388923"></polygon>
                        <polygon id="Fill-41" fill="#4F9958" points="45.0278245 79.5669284 12.0329535 60.4580797 12.0329535 51.7424192 45.5871019 41.1272236 78.0226955 51.7424192 78.0226955 60.4580797"></polygon>
                        <polyline id="Fill-43" fill="#FEFEFE" points="37.0865845 65.0400376 35.9680297 65.7110487 34.5136587 55.5411151 53.4167361 55.5411151 34.5136587 66.4930635"></polyline>
                        <polygon id="Fill-45" fill="#59B367" points="45.0278245 71.2977771 0.0646664516 45.372803 0.0646664516 33.5278362 45.6994568 19.1135705 89.8786277 33.5278362 89.8786277 45.372803"></polygon>
                        <polygon id="Fill-47" fill="#55A960" points="45.0278245 19.3364509 45.0278245 71.297403 89.8786277 45.3724288 89.8786277 33.527462 45.6994568 19.1131963"></polygon>
                        <polygon id="Fill-49" fill="#59B367" points="45.0278245 59.4528103 0.0646664516 33.5278362 45.6994568 7.26860369 89.8786277 33.5278362"></polygon>
                        <polygon id="Fill-51" fill="#4F9958" points="45.0278245 49.507628 12.0329535 30.5110303 12.0329535 21.7953697 45.5871019 11.1789269 78.0226955 21.7953697 78.0226955 30.5110303"></polygon>
                        <polygon id="Fill-53" fill="#4C9052" points="45.0278245 11.2908037 45.0278245 49.5072539 78.0226955 30.5106561 78.0226955 21.7949956 45.5871019 11.1785528"></polygon>
                        <polygon id="Fill-55" fill="#4F9958" points="45.0278245 40.9032207 12.0329535 21.794372 45.5871019 2.46351587 78.0226955 21.794372"></polygon>
                        <polygon id="Fill-57" fill="#46824B" points="45.0278245 33.8633417 21.5394213 20.3420945 21.5394213 14.1957328 45.3636406 6.59759262 68.5162277 14.1957328 68.5162277 20.3420945"></polygon>
                        <polygon id="Fill-59" fill="#407345" points="45.0278245 6.70934465 45.0278245 33.8628428 68.5162277 20.3415956 68.5162277 14.1964812 45.3636406 6.59709373"></polygon>
                        <polygon id="Fill-61" fill="#46824B" points="45.0278245 27.7173542 21.5394213 14.196107 45.3636406 0.339354244 68.5162277 14.196107"></polygon>
                        <polygon id="Fill-63" fill="#355F37" points="45.0278245 20.4539712 31.9409826 12.9668347 31.9409826 9.50327011 45.2512858 5.25644354 58.1146665 9.50327011 58.1146665 12.9668347"></polygon>
                        <polygon id="Fill-65" fill="#2C4C2D" points="45.0278245 5.36844502 45.0278245 20.4537218 58.1146665 12.9665852 58.1146665 9.50302066 45.2512858 5.2561941"></polygon>
                        <polygon id="Fill-67" fill="#355F37" points="45.0278245 16.989783 31.9409826 9.50264649 45.2512858 1.79225535 58.1146665 9.50264649"></polygon>
                    </g>
                </g>
            </g>
        </g>
    </g>
</svg>