<?xml version="1.0" encoding="UTF-8"?>
<svg width="291px" height="181px" viewBox="0 0 291 181" version="1.1" xmlns="http://www.w3.org/2000/svg" xmlns:xlink="http://www.w3.org/1999/xlink">
    <!-- Generator: Sketch 48.2 (47327) - http://www.bohemiancoding.com/sketch -->
    <title>03-top</title>
    <desc>Created with Sketch.</desc>
    <defs></defs>
    <g id="Desktop-HD-Copy-17" stroke="none" stroke-width="1" fill="none" fill-rule="evenodd" transform="translate(-847.000000, -1741.000000)">
        <g id="Group-6-Copy" transform="translate(788.000000, 1608.000000)">
            <g id="Page-1">
                <g id="Top" transform="translate(0.000000, 0.314303)">
                    <g id="03-top" transform="translate(59.000000, 133.000000)">
                        <path d="M72.261911,177.13982 L6.15232387,139.583156 C-1.58767613,135.093119 -1.58767613,123.868027 6.15232387,119.37799 L198.845866,6.58202657 C202.466188,4.46173137 206.835543,4.46173137 210.455866,6.58202657 L286.427711,49.7512369 C292.419969,53.2434878 292.419969,61.8493919 286.427711,65.3416428 L95.6067497,177.015097 C88.3661045,181.255687 79.5025561,181.255687 72.261911,177.13982" id="Fill-1" fill="#D2CFC6"></path>
                        <path d="M71.617471,171.392192 L5.805,134.591351 C-1.935,130.101314 -1.935,118.876221 5.805,114.386185 L198.498542,1.5902214 C202.118865,-0.530073801 206.488219,-0.530073801 210.108542,1.5902214 L285.050468,43.5508635 C291.042726,47.0431144 291.042726,55.6490185 285.050468,59.1412694 L94.9623097,171.267469 C87.7216645,175.508059 78.8581161,175.508059 71.617471,171.392192" id="Fill-3" fill="#545454"></path>
                        <polygon id="Fill-5" fill="#FEFEFE" points="93.4221971 124.939399 81.6586455 118.359001 121.389813 95.4411041 132.976094 102.123776"></polygon>
                        <polygon id="Fill-31" fill="#FEFEFE" points="40.3779797 153.814951 28.6144281 147.234553 68.3455958 124.316656 79.9318765 130.999328"></polygon>
                        <polygon id="Fill-107" fill="#416770" points="67.9201455 95.9873919 53.55121 104.281488 50.7785423 102.632646 65.1474777 94.3397978"></polygon>
                        <polygon id="Fill-108" fill="#36565E" points="67.9201455 103.659119 53.55121 111.953215 53.5562035 104.221621 67.925139 95.928772"></polygon>
                        <polygon id="Fill-109" fill="#519FBB" points="102.539168 137.195329 56.1940455 110.462148 56.1940455 83.7302148 102.539168 110.462148"></polygon>
                        <path d="M194.207608,72.2874804 L194.050312,72.3785284 C188.185389,75.7909565 184.57755,82.0607941 184.57755,88.841997 C184.57755,89.1812443 184.612505,89.5080192 184.644963,89.8347941 L207.746366,76.5106096 C205.476799,71.6663587 199.327244,69.3090893 194.207608,72.2874804" id="Fill-110" fill="#416770"></path>
                        <path d="M200.760267,72.704555 L195.890309,70.3647469 C195.423413,70.5468428 194.661896,72.0235661 194.207484,72.2879793 L194.050187,72.3790273 C191.117725,74.0852413 188.767013,76.5148502 187.132874,79.357293 L187.116645,79.3435734 C187.023016,79.5069609 186.940622,79.6753373 186.851987,79.8412192 C186.850738,79.8424664 186.84949,79.8437137 186.84949,79.8449609 C185.387629,82.5676694 184.577425,85.6458391 184.578674,88.8424959 C184.578674,89.1817432 184.61238,89.5085181 184.644838,89.835293 L183.115564,90.7183336 L190.205155,95.4615587 L190.205155,82.7547542 L194.211229,86.2295439 L200.760267,72.704555 Z" id="Fill-112" fill="#2E4C4F"></path>
                        <polygon id="Fill-114" fill="#53A8CE" points="114.126323 50.3144871 172.056477 16.8986347 56.193671 83.7303395 102.538794 110.462273 160.470197 77.0464207"></polygon>
                        <polygon id="Fill-116" fill="#53A8CE" points="81.2103497 68.8946339 75.2305755 65.4447889 75.2305755 59.8758959 81.2103497 63.3244937"></polygon>
                        <polygon id="Fill-118" fill="#5FBFDF" points="81.2103497 63.3248679 75.2305755 59.8750229 76.4664787 59.205259 82.4462529 62.6201815"></polygon>
                        <polygon id="Fill-120" fill="#53ACC4" points="82.4458784 68.1867048 81.2099752 68.8951328 81.2099752 63.3274871 82.4458784 62.619059"></polygon>
                        <polyline id="Fill-122" fill="#276984" points="213.228409 43.636555 157.874925 75.5669535 116.705615 51.8707838 172.059099 19.9403852"></polyline>
                        <polygon id="Fill-124" fill="#A38686" points="157.87455 75.5667041 137.297386 63.6805786 172.056228 43.6313166 192.642131 55.5049697"></polygon>
                        <path d="M172.056477,16.8982605 L218.4016,43.6314413" id="Fill-126" fill="#53A8CE"></path>
                        <polygon id="Fill-128" fill="#2D778D" points="192.642131 55.5050945 172.056228 43.6314413 172.059973 19.9402605 213.228034 43.6364303"></polygon>
                        <polygon id="Fill-130" fill="#FEFEFE" points="124.740235 95.0973668 80.5822861 69.6201491 85.8692055 42.5065624 130.028402 67.9850273"></polygon>
                        <polygon id="Fill-132" fill="#438496" points="86.5122497 42.8777387 85.8693303 42.5073107 80.5811626 69.6196502 81.820811 68.9473919"></polygon>
                        <polygon id="Fill-134" fill="#4491AC" points="125.002021 93.754721 124.73986 95.0967432 80.5819116 69.6195255 81.82156 68.9472672"></polygon>
                        <polygon id="Fill-136" fill="#4491AC" points="154.872804 77.8728369 129.153533 92.5739661 128.936313 93.7550952 156.011333 78.4303498"></polygon>
                        <polygon id="Fill-138" fill="#4491AC" points="156.011582 78.4302251 156.045289 54.4247417 155.281276 54.8625203 154.873053 77.8727122"></polygon>
                        <polygon id="Fill-140" fill="#4491AC" points="133.622134 93.2483446 127.64236 89.7984996 128.878263 89.1287358 134.858037 92.5436583"></polygon>
                        <polygon id="Fill-142" fill="#53A8CE" points="135.19298 98.5992214 129.213205 95.1493764 129.213205 89.5804834 135.19298 93.0290812"></polygon>
                        <polygon id="Fill-144" fill="#5FBFDF" points="135.193105 93.0294554 129.21333 89.5796103 130.449234 88.9098465 136.429008 92.324769"></polygon>
                        <polygon id="Fill-146" fill="#53ACC4" points="136.428508 97.891417 135.192605 98.5985978 135.192605 93.0321993 136.428508 92.3237712"></polygon>
                        <polygon id="Fill-148" fill="#53A8CE" points="129.213081 91.6538827 127.64261 90.7246945 127.64261 89.794259 129.213081 90.7234472"></polygon>
                        <polygon id="Fill-150" fill="#416770" points="99.7712442 131.070669 53.4186313 104.258913 56.191299 102.648736 102.543912 129.460492"></polygon>
                        <polygon id="Fill-152" fill="#36565E" points="99.76675 138.805257 102.539418 137.19508 102.543163 129.460991 99.7717435 131.071168"></polygon>
                        <polygon id="Fill-154" fill="#416770" points="116.912723 124.429156 102.543787 132.723252 99.7711194 131.074411 114.140055 122.781562"></polygon>
                        <polygon id="Fill-156" fill="#36565E" points="53.5542061 104.27812 50.7790416 102.629279 50.7740481 110.363368 53.5529577 112.014703 102.539667 140.394231 102.543413 132.660142"></polygon>
                        <polygon id="Fill-158" fill="#416770" points="88.1809687 108.489027 66.8310526 96.0715801 69.6037203 94.4626502 90.9536365 106.878849"></polygon>
                        <polyline id="Fill-160" fill="#36565E" points="66.8335494 106.109307 88.1784719 118.448178 88.1809687 108.411698 66.8335494 96.0715801"></polyline>
                        <polygon id="Fill-162" fill="#36565E" points="102.548406 132.664009 102.543413 140.394356 116.912348 132.101507 116.917342 124.369913"></polygon>
                        <polygon id="Fill-164" fill="#416770" points="88.1809687 108.489027 88.1809687 118.448178 90.9536365 116.838001 90.9536365 106.878849"></polygon>
                        <polyline id="Fill-166" fill="#22383C" points="68.7971374 105.935193 69.8719987 106.572529 69.8732471 99.0192893 68.795889 98.3807063"></polyline>
                        <polygon id="Fill-168" fill="#416770" points="68.7971374 105.935193 69.8719987 106.572529 69.8719987 105.325297"></polygon>
                        <polyline id="Fill-170" fill="#22383C" points="70.6544877 107.0365 71.729349 107.673835 71.7305974 100.120596 70.6532394 99.4820125"></polyline>
                        <polygon id="Fill-172" fill="#416770" points="70.6544877 107.0365 71.729349 107.673835 71.729349 106.426603"></polygon>
                        <polyline id="Fill-174" fill="#22383C" points="72.5119629 108.137931 73.5868242 108.775266 73.5880726 101.222027 72.5107145 100.583444"></polyline>
                        <polygon id="Fill-176" fill="#416770" points="72.5119629 108.137931 73.5868242 108.775266 73.5868242 107.528034"></polygon>
                        <polyline id="Fill-178" fill="#22383C" points="74.3693132 109.239237 75.4441745 109.876573 75.4454229 102.323333 74.3680648 101.68475"></polyline>
                        <polygon id="Fill-180" fill="#416770" points="74.3693132 109.239237 75.4441745 109.876573 75.4441745 108.62934"></polygon>
                        <polyline id="Fill-182" fill="#22383C" points="76.2267884 110.340543 77.3016497 110.977879 77.3028981 103.424639 76.22554 102.786056"></polyline>
                        <polygon id="Fill-184" fill="#416770" points="76.2267884 110.340543 77.3016497 110.977879 77.3016497 109.730646"></polygon>
                        <polyline id="Fill-186" fill="#22383C" points="78.0842635 111.441974 79.1591248 112.07931 79.1603732 104.52607 78.0830152 103.887487"></polyline>
                        <polygon id="Fill-188" fill="#416770" points="78.0842635 111.441974 79.1591248 112.07931 79.1591248 110.832077"></polygon>
                        <polyline id="Fill-190" fill="#22383C" points="79.9416139 112.54328 81.0164752 113.180616 81.0177235 105.627376 79.9403655 104.988793"></polyline>
                        <polygon id="Fill-192" fill="#416770" points="79.9416139 112.54328 81.0164752 113.180616 81.0164752 111.933384"></polygon>
                        <polyline id="Fill-194" fill="#22383C" points="81.799089 113.644711 82.8739503 114.282047 82.8751987 106.728807 81.7978406 106.090224"></polyline>
                        <polygon id="Fill-196" fill="#416770" points="81.799089 113.644711 82.8739503 114.282047 82.8739503 113.034815"></polygon>
                        <polyline id="Fill-198" fill="#22383C" points="83.6564394 114.746018 84.7313006 115.383354 84.732549 107.830114 83.655191 107.191531"></polyline>
                        <polygon id="Fill-200" fill="#416770" points="83.6564394 114.746018 84.7313006 115.383354 84.7313006 114.136121"></polygon>
                        <polyline id="Fill-202" fill="#22383C" points="85.5139145 115.847324 86.5887758 116.48466 86.5900242 108.93142 85.5126661 108.292837"></polyline>
                        <polygon id="Fill-204" fill="#416770" points="85.5139145 115.847324 86.5887758 116.48466 86.5887758 115.237427"></polygon>
                        <path d="M96.6897255,120.768155 C94.3252803,119.40493 92.869661,116.88552 92.869661,114.157823 C92.869661,113.887173 91.9258803,113.592827 92.0756868,113.392022 C93.1630319,111.934007 95.1954061,111.158229 96.6322997,111.987638 C98.9967448,113.350863 100.452364,115.870273 100.452364,118.59797 C100.452364,120.193181 97.5386287,122.463144 96.09799,122.251114 C95.7971287,122.206214 96.9793513,120.935284 96.6897255,120.768155" id="Fill-206" fill="#416770"></path>
                        <path d="M94.9946655,121.924963 C92.6302203,120.561738 91.174601,118.042328 91.174601,115.314631 C91.1733526,113.385162 93.264401,112.179089 94.9372397,113.144446 C97.3016848,114.507672 98.7573042,117.027081 98.7573042,119.754779 C98.7573042,121.684247 96.6675042,122.889074 94.9946655,121.924963" id="Fill-208" fill="#DFD29A"></path>
                        <path d="M94.9849281,120.434021 C93.4231958,119.53352 92.4619377,117.869711 92.4619377,116.068708 C92.4619377,114.794036 93.8426539,113.998302 94.9474765,114.63439 C96.5079603,115.534892 97.4704668,117.199948 97.4704668,119.000951 C97.4704668,120.274376 96.0897506,121.071357 94.9849281,120.434021" id="Fill-210" fill="#FAEDA8"></path>
                        <path d="M62.2704448,100.907973 C59.9059997,99.5447483 58.4503803,97.0253387 58.4503803,94.2976413 C58.4503803,94.0269919 57.5065997,93.732645 57.6564061,93.5318406 C58.7437513,92.0738258 60.7761255,91.2980472 62.213019,92.1274568 C64.5774642,93.4906819 66.0330835,96.0100915 66.0330835,98.7377889 C66.0330835,100.332999 63.1193481,102.602962 61.6787094,102.390933 C61.3778481,102.346032 62.5600706,101.075103 62.2704448,100.907973" id="Fill-212" fill="#416770"></path>
                        <path d="M60.5753848,102.064782 C58.2109397,100.701556 56.7553203,98.1821469 56.7553203,95.4544494 C56.7540719,93.5249808 58.8451203,92.318907 60.517959,93.2842649 C62.8824042,94.64749 64.3380235,97.1668996 64.3380235,99.894597 C64.3380235,101.824066 62.2482235,103.028892 60.5753848,102.064782" id="Fill-214" fill="#DFD29A"></path>
                        <path d="M60.5655226,100.57384 C59.0037903,99.673338 58.0425323,98.0095299 58.0425323,96.2085262 C58.0425323,94.9338546 59.4232484,94.1381203 60.528071,94.7742089 C62.0885548,95.6747107 63.0510613,97.3397661 63.0510613,99.1407697 C63.0510613,100.414194 61.6703452,101.211176 60.5655226,100.57384" id="Fill-216" fill="#FAEDA8"></path>
                        <polygon id="Fill-218" fill="#FEFEFE" points="117.922668 90.7426546 117.526929 90.5144111 118.072474 90.1988613 118.468213 90.4271048"></polygon>
                        <polygon id="Fill-220" fill="#416770" points="117.922668 90.7426546 117.526929 90.5144111 117.601832 88.5787063 117.997571 88.8069498"></polygon>
                        <polygon id="Fill-222" fill="#36565E" points="118.461721 90.4258576 117.922418 90.7426546 117.997321 88.8069498 118.536625 88.4901528"></polygon>
                        <polygon id="Fill-224" fill="#416770" points="118.740486 88.715403 118.272341 88.9748273 95.1010281 74.7039934 95.2670635 74.6129454 118.769199 87.7675063"></polygon>
                        <polygon id="Fill-226" fill="#36565E" points="118.272341 88.9752015 95.0985313 75.6435336 95.1010281 74.7043675 118.301054 88.0273048"></polygon>
                        <polygon id="Fill-228" fill="#416770" points="83.6720442 70.8555328 83.2763055 70.6272893 83.3836668 67.4144185 83.7794055 67.642662"></polygon>
                        <polygon id="Fill-230" fill="#36565E" points="84.2110977 70.5089269 83.6717945 70.825724 83.7791558 67.6427867 84.318459 67.3259897"></polygon>
                        <polygon id="Fill-232" fill="#E7F7FF" points="87.6903526 72.3192849 82.6805752 69.4319417 110.314872 56.6078974 115.493182 59.5987609"></polygon>
                        <polygon id="Fill-234" fill="#E7F7FF" points="89.5593129 73.3821764 88.8539742 72.9780731 116.488271 60.1540288 117.362142 60.6616524"></polygon>
                        <polygon id="Fill-236" fill="#416770" points="106.671205 79.9952524 106.503921 80.0900421 82.6834465 66.0823742 83.1977819 65.8927948 106.699917 79.0473557"></polygon>
                        <polygon id="Fill-238" fill="#36565E" points="106.503546 80.0894185 82.6805752 67.0221638 82.6830719 66.0829978 106.532259 79.1415218"></polygon>
                        <path d="M193.171946,29.3022369 L193.171946,30.69789" id="Fill-240" fill="#C0BDB8"></path>
                        <polygon id="Fill-242" fill="#F1EBE1" points="177.702183 75.5566015 155.63819 62.8298413 155.63819 37.376321 177.702183 50.1030812"></polygon>
                        <polygon id="Fill-244" fill="#F1EBE1" points="177.702183 50.1034554 155.63819 37.3766952 177.702183 24.6499351 199.766177 37.3766952"></polygon>
                        <polygon id="Fill-246" fill="#F6F1E6" points="177.702183 75.5566015 177.700935 50.1030812 199.764928 37.376321 199.766177 62.8298413"></polygon>
                        <polygon id="Fill-248" fill="#D2CFC6" points="177.702183 48.9734627 157.596909 37.3766952 177.702183 25.7799277 197.807457 37.3766952"></polygon>
                        <polygon id="Fill-250" fill="#C0BDB8" points="197.806833 37.3768199 196.81062 37.9517941 177.701559 27.1869306 177.701559 25.7800524"></polygon>
                        <polygon id="Fill-252" fill="#C0BDB8" points="157.597408 37.3766952 158.597366 37.9529166 177.702683 27.1868059 177.702683 25.7799277"></polygon>
                        <polyline id="Fill-254" fill="#C0BDB8" points="158.642558 37.1948487 197.056677 37.8097343 195.908161 38.4720148 159.520174 38.4720148 158.329213 37.7985092"></polyline>
                        <polygon id="Fill-256" fill="#F1EBE1" points="197.806958 37.7890303 157.060852 37.787783 157.060852 36.4594804 197.806958 36.4594804"></polygon>
                        <polygon id="Fill-258" fill="#F1EBE1" points="178.976162 48.2385934 177.701559 48.9732133 176.60922 48.3433609 176.60922 26.4107779 177.701559 25.7796782 178.976162 26.5142982"></polygon>
                        <polygon id="Fill-260" fill="#D2CFC6" points="179.012865 73.2883845 179.012865 50.859403 198.453997 39.6455358 198.455245 62.0732701"></polygon>
                        <polygon id="Fill-262" fill="#C0BDB8" points="197.302859 40.3093129 198.453872 39.644538 198.455121 62.0735196 197.302859 61.4087446"></polygon>
                        <polygon id="Fill-264" fill="#C0BDB8" points="179.012865 71.9624517 179.012865 73.2882598 198.455245 62.0743926 197.302984 61.4083705"></polygon>
                        <polygon id="Fill-266" fill="#F1EBE1" points="198.454996 40.8728125 180.082483 72.6722517 179.012615 73.2883845 178.976412 72.3816465 197.452541 40.2230044 198.454996 39.6455358"></polygon>
                        <polygon id="Fill-268" fill="#C0BDB8" points="196.631851 40.6963292 178.975913 71.2585137 179.013364 73.2877609 178.975913 72.3810229 197.452042 40.223628 198.454496 39.6449122"></polygon>
                        <polygon id="Fill-270" fill="#F1EBE1" points="179.646671 50.4937144 198.454871 60.9467697 198.454871 62.0742679 179.01249 51.4890059 179.01249 50.8591535"></polygon>
                        <polygon id="Fill-272" fill="#D2CFC6" points="176.756405 73.9201077 156.583718 62.284676 156.583718 39.0138125 176.756405 50.6492443"></polygon>
                        <polygon id="Fill-274" fill="#C0BDB8" points="175.953942 72.2846118 175.950197 73.6129144 156.542771 62.3379328 157.697529 61.6768996"></polygon>
                        <polygon id="Fill-276" fill="#C0BDB8" points="157.760323 40.5759712 156.613055 39.9099491 156.543145 62.3389306 157.697904 61.6766502"></polygon>
                        <polygon id="Fill-278" fill="#F1EBE1" points="175.68042 73.4765919 156.655001 40.2465771 156.631282 39.0130642 157.443982 39.419662 176.734059 72.91409 176.75653 74.0702745"></polygon>
                        <polygon id="Fill-280" fill="#C0BDB8" points="176.756405 71.9018362 158.428834 39.962707 156.632405 39.0135631 157.443857 39.4189137 176.773883 72.8484856 176.70647 72.2834893"></polygon>
                        <polygon id="Fill-282" fill="#F1EBE1" points="156.546641 61.6083018 176.75678 49.7296598 176.75678 51.2575196 157.175828 62.7133498 156.542896 62.3404273"></polygon>
                        <polygon id="Fill-284" fill="#F1EBE1" points="152.4181 89.3265469 130.354106 76.5997867 130.354106 51.1462664 152.4181 63.8730266"></polygon>
                        <polygon id="Fill-286" fill="#F1EBE1" points="152.4181 63.8734007 130.354106 51.1466406 152.4181 38.4198804 174.482094 51.1466406"></polygon>
                        <polygon id="Fill-288" fill="#F6F1E6" points="152.4181 89.3265469 152.416852 63.8730266 174.480845 51.1462664 174.482094 76.5997867"></polygon>
                        <polygon id="Fill-290" fill="#D2CFC6" points="152.417975 62.7434081 132.312701 51.1466406 152.417975 39.5498731 172.523249 51.1466406"></polygon>
                        <polygon id="Fill-292" fill="#C0BDB8" points="172.52275 51.1467653 171.526537 51.7217395 152.417476 40.956876 152.417476 39.5499978"></polygon>
                        <polygon id="Fill-294" fill="#C0BDB8" points="132.3132 51.1466406 133.313158 51.722862 152.418475 40.9567513 152.418475 39.5498731"></polygon>
                        <polyline id="Fill-296" fill="#C0BDB8" points="133.358475 50.9649188 171.772594 51.5798044 170.624078 52.2420849 134.236091 52.2420849 133.04513 51.5685793"></polyline>
                        <polygon id="Fill-298" fill="#F1EBE1" points="172.522875 51.5589756 131.776768 51.5577284 131.776768 50.2294258 172.522875 50.2294258"></polygon>
                        <polygon id="Fill-300" fill="#F1EBE1" points="153.691954 62.0086635 152.417351 62.7432834 151.325012 62.113431 151.325012 40.180848 152.417351 39.5497483 153.691954 40.2843683"></polygon>
                        <polygon id="Fill-302" fill="#D2CFC6" points="153.728782 87.0583299 153.728782 64.6293483 173.169914 53.4154812 173.171162 75.8432155"></polygon>
                        <polygon id="Fill-304" fill="#C0BDB8" points="172.018651 54.0792583 173.169664 53.4144834 173.170913 75.8434649 172.018651 75.17869"></polygon>
                        <polygon id="Fill-306" fill="#C0BDB8" points="153.728782 85.732397 153.728782 87.0582052 173.171162 75.844338 172.018901 75.1783159"></polygon>
                        <polygon id="Fill-308" fill="#F1EBE1" points="173.170913 54.6427579 154.7984 86.442197 153.728532 87.0583299 153.692329 86.1515919 172.168458 53.9929498 173.170913 53.4154812"></polygon>
                        <polygon id="Fill-310" fill="#C0BDB8" points="171.347768 54.4662745 153.691829 85.028459 153.729281 87.0577063 153.691829 86.1509683 172.167958 53.9935734 173.170413 53.4148576"></polygon>
                        <polygon id="Fill-312" fill="#F1EBE1" points="154.362463 64.2636598 173.170663 74.7167151 173.170663 75.8442133 153.728282 65.2589513 153.728282 64.6290989"></polygon>
                        <polygon id="Fill-314" fill="#D2CFC6" points="151.472322 87.6900531 131.299635 76.0546214 131.299635 52.7837579 151.472322 64.4191897"></polygon>
                        <polygon id="Fill-316" fill="#C0BDB8" points="150.669734 86.0545572 150.665989 87.3828598 131.258563 76.1078782 132.413321 75.446845"></polygon>
                        <polygon id="Fill-318" fill="#C0BDB8" points="132.47624 54.3459166 131.328972 53.6798945 131.259062 76.108876 132.41382 75.4465956"></polygon>
                        <polygon id="Fill-320" fill="#F1EBE1" points="150.396337 87.2465373 131.370918 54.0165225 131.347198 52.7830096 132.159898 53.1896074 151.449976 86.6840354 151.472447 87.8402199"></polygon>
                        <polygon id="Fill-322" fill="#C0BDB8" points="151.472322 85.6717815 133.144751 53.7326524 131.348322 52.7835085 132.159774 53.188859 151.489799 86.618431 151.422386 86.0534347"></polygon>
                        <polygon id="Fill-324" fill="#F1EBE1" points="131.262558 75.3782472 151.472696 63.4996052 151.472696 65.0274649 131.891745 76.4832952 131.258813 76.1103727"></polygon>
                        <path d="M194.050811,72.3787779 C199.326495,69.3093387 205.47605,71.6666081 207.746866,76.5096118 L218.40185,70.3632502 L218.40185,43.6313166 L102.539043,110.463021 L102.539043,137.194955 L184.645463,89.8350435 C184.613005,89.5082686 184.57805,89.1814937 184.57805,88.8422465 C184.57805,82.0610435 188.185888,75.7912059 194.050811,72.3787779 Z" id="Fill-326" fill="#2E7A90"></path>
                        <polygon id="Fill-328" fill="#2A7182" points="128.867902 121.893907 128.042718 122.37035 128.042718 96.1659956 128.867902 95.6908"></polygon>
                        <polygon id="Fill-330" fill="#2A7182" points="153.073004 85.5445638 147.889701 88.5990362 147.889701 86.9277446 153.073004 83.8732723"></polygon>
                        <polygon id="Fill-332" fill="#2A7182" points="153.073004 86.4113904 147.889701 89.4658627 147.889701 88.8684384 153.073004 85.8139661"></polygon>
                        <path d="M159.529038,74.6123218 L129.31058,44.5989196 L172.059099,19.9411336 L213.228409,43.6360561 L159.529038,74.6123218 Z M172.056602,16.8978863 L114.126447,50.314986 L160.47157,77.0469196 L218.401725,43.6310672 L172.056602,16.8978863 Z" id="Fill-334" fill="#53A8CE"></path>
                        <polygon id="Fill-336" fill="#2E7A90" points="160.471695 77.0472937 125.711605 97.0965557 131.504121 67.0220391 160.471695 50.3141129"></polygon>
                        <polygon id="Fill-338" fill="#53A8CE" points="131.50462 67.0220391 85.1594974 40.2888583 114.125823 23.5821793 160.472194 50.3141129"></polygon>
                        <polygon id="Fill-340" fill="#FEFEFE" points="155.268667 78.0057919 128.389645 93.3305373 133.147248 67.4467218 155.442193 54.7710982"></polygon>
                        <polygon id="Fill-342" fill="#E7F7FF" points="150.481227 80.4827956 145.094437 83.5622125 133.881424 67.0226627 139.280698 63.9594598"></polygon>
                        <polygon id="Fill-344" fill="#E7F7FF" points="152.613348 79.1643461 152.00788 79.5098295 140.350441 63.3843609 141.270503 62.966538"></polygon>
                        <polygon id="Fill-346" fill="#2A7182" points="156.870597 105.856119 156.045414 106.332562 156.045414 52.8662 156.870597 52.3910044"></polygon>
                        <path d="M124.740235,95.0973668 L80.5822861,69.6201491 L85.8692055,42.5065624 L130.028402,67.9850273 L124.740235,95.0973668 Z M85.1588732,40.288983 L79.3663571,70.3634996 L125.71148,97.0966804 L131.505244,67.0221638 L85.1588732,40.288983 Z" id="Fill-348" fill="#519FBB"></path>
                        <polygon id="Fill-350" fill="#F1EBE1" points="165.014451 52.8119454 142.950457 40.0851852 142.950457 14.6316649 165.014451 27.3584251"></polygon>
                        <polygon id="Fill-352" fill="#F1EBE1" points="165.014451 27.3587993 142.950457 14.6320391 165.014451 1.90527897 187.078444 14.6320391"></polygon>
                        <polygon id="Fill-354" fill="#F6F1E6" points="165.014451 52.8119454 165.013202 27.3584251 187.077196 14.6316649 187.078444 40.0851852"></polygon>
                        <polygon id="Fill-356" fill="#D2CFC6" points="165.014451 26.2288066 144.909176 14.6320391 165.014451 3.03527159 185.119725 14.6320391"></polygon>
                        <polygon id="Fill-358" fill="#C0BDB8" points="185.119101 14.6321638 184.122888 15.207138 165.013826 4.44227454 165.013826 3.03539631"></polygon>
                        <polygon id="Fill-360" fill="#C0BDB8" points="144.909551 14.6320391 145.909509 15.2082605 165.014825 4.44214982 165.014825 3.03527159"></polygon>
                        <polyline id="Fill-362" fill="#C0BDB8" points="145.954825 14.4501926 184.368945 15.0650782 183.220429 15.7273587 146.832442 15.7273587 145.64148 15.0538531"></polyline>
                        <polygon id="Fill-364" fill="#F1EBE1" points="185.119225 15.0442494 144.373119 15.0430022 144.373119 13.7146996 185.119225 13.7146996"></polygon>
                        <polygon id="Fill-366" fill="#F1EBE1" points="166.28843 25.4939373 165.015075 26.2285572 163.921488 25.5987048 163.921488 3.66612177 165.013826 3.03502214 166.28843 3.76964207"></polygon>
                        <polygon id="Fill-368" fill="#D2CFC6" points="166.325132 50.5436037 166.325132 28.1146221 185.766265 16.900755 185.767513 39.3284893"></polygon>
                        <polygon id="Fill-370" fill="#C0BDB8" points="184.615002 17.5646568 185.766015 16.8998819 185.767263 39.3288635 184.615002 38.6640886"></polygon>
                        <polygon id="Fill-372" fill="#C0BDB8" points="166.325132 49.2177956 166.325132 50.5436037 185.767513 39.3297365 184.615252 38.6637144"></polygon>
                        <polygon id="Fill-374" fill="#F1EBE1" points="185.767263 18.1281565 167.39475 49.9275956 166.324883 50.5437284 166.288679 49.6369904 184.764808 17.4783483 185.767263 16.9008797"></polygon>
                        <polygon id="Fill-376" fill="#C0BDB8" points="183.944119 17.9516731 166.28818 48.5138576 166.325632 50.5431048 166.28818 49.6363668 184.764309 17.478972 185.766764 16.9002561"></polygon>
                        <polygon id="Fill-378" fill="#F1EBE1" points="166.958938 27.7489336 185.767138 38.2019889 185.767138 39.3294871 166.324758 28.7442251 166.324758 28.1143727"></polygon>
                        <polygon id="Fill-380" fill="#D2CFC6" points="164.068673 51.1754517 143.895985 39.5400199 143.895985 16.2691565 164.068673 27.9045882"></polygon>
                        <polygon id="Fill-382" fill="#C0BDB8" points="163.266085 49.539831 163.262339 50.8681336 143.854914 39.593152 145.009672 38.9321188"></polygon>
                        <polygon id="Fill-384" fill="#C0BDB8" points="145.07259 17.8313151 143.925323 17.165293 143.855413 39.5942745 145.010171 38.9319941"></polygon>
                        <polygon id="Fill-386" fill="#F1EBE1" points="162.992688 50.7319358 143.967268 17.501921 143.943549 16.2684081 144.756249 16.6750059 164.046326 50.1694339 164.068797 51.3256185"></polygon>
                        <polygon id="Fill-388" fill="#C0BDB8" points="164.068673 49.1571801 145.741102 17.2180509 143.944673 16.268907 144.756124 16.6742576 164.08615 50.1038295 164.018737 49.5388332"></polygon>
                        <polygon id="Fill-390" fill="#F1EBE1" points="143.858908 38.8636458 164.069047 26.9850037 164.069047 28.5128635 144.488095 39.9686937 143.855163 39.5957712"></polygon>
                        <path d="M133.131019,131.866903 C128.171177,134.728054 121.972935,131.152238 121.971686,125.431183 C121.971686,120.204032 124.751845,115.372253 129.272254,112.74184 L129.393348,112.671995 C134.331967,109.799618 140.527712,113.357973 140.527712,119.066556 C140.527712,124.347338 137.708854,129.226511 133.131019,131.866903" id="Fill-392" fill="#276984"></path>
                        <path d="M186.978823,80.9858044 L192.642755,80.9858044" id="Fill-394" fill="#416770"></path>
                        <path d="M193.522993,76.0352893 L199.186925,76.0352893" id="Fill-396" fill="#416770"></path>
                        <path d="M198.802047,95.5294081 C196.505015,96.853969 193.975783,96.9699616 191.781118,96.2029137 C188.565273,95.0791572 186.067251,92.0645963 186.067251,88.1844561 C186.066002,82.2189432 189.239402,76.7036812 194.398986,73.7028399 L194.536309,73.623017 C200.172776,70.3440428 207.243641,74.4050317 207.243641,80.9205742 C207.243641,86.9472015 204.026547,92.5160945 198.802047,95.5294081" id="Fill-398" fill="#22383C"></path>
                        <path d="M197.443677,88.595045 C196.599768,89.0814657 195.670968,89.1238716 194.86451,88.841997 C193.684784,88.4304103 192.767219,87.3228679 192.767219,85.8972812 C192.765971,83.707141 193.931965,81.6816354 195.827016,80.5790819 L195.876952,80.5503956 C197.946777,79.345569 200.543423,80.837259 200.543423,83.2306982 C200.543423,85.4432886 199.362448,87.4887498 197.443677,88.595045" id="Fill-400" fill="#416770"></path>
                        <path d="M130.281325,109.121124 L130.124029,109.212172 C124.259106,112.6246 120.651267,118.894438 120.651267,125.675641 C120.651267,126.014888 120.686222,126.341663 120.71868,126.668438 L143.820084,113.344253 C141.550516,108.500002 135.400961,106.142733 130.281325,109.121124" id="Fill-402" fill="#416770"></path>
                        <path d="M136.833985,109.538199 L131.665662,108.466826 C131.198765,108.648922 130.735614,108.85721 130.281201,109.121623 L130.123904,109.212671 C127.191443,110.918885 124.84073,113.348494 123.206591,116.190937 L123.190362,116.177217 C123.096733,116.340604 123.014339,116.508981 122.925704,116.674863 C122.924455,116.67611 122.923207,116.677357 122.923207,116.678604 C121.461346,119.401313 120.651143,122.479483 120.652391,125.676139 C120.652391,126.015387 120.686097,126.342162 120.718555,126.668937 L119.189281,127.551977 L126.278872,132.295202 L126.278872,119.588398 L130.284946,123.063187 L136.833985,109.538199 Z" id="Fill-404" fill="#2E4C4F"></path>
                        <path d="M134.875765,132.363052 C132.578732,133.687613 130.0495,133.803605 127.854835,133.036557 C124.63899,131.912801 122.140968,128.89824 122.140968,125.0181 C122.139719,119.052587 125.313119,113.537325 130.472703,110.536483 L130.610026,110.456661 C136.246494,107.177686 143.317358,111.238675 143.317358,117.754218 C143.317358,123.780845 140.100265,129.349738 134.875765,132.363052" id="Fill-406" fill="#22383C"></path>
                        <path d="M133.517395,125.428813 C132.673485,125.915234 131.744685,125.95764 130.938227,125.675765 C129.758501,125.264179 128.840936,124.156636 128.840936,122.731049 C128.839688,120.540909 130.005682,118.515404 131.900733,117.41285 L131.950669,117.384164 C134.020495,116.179337 136.61714,117.671027 136.61714,120.064466 C136.61714,122.277057 135.436165,124.322518 133.517395,125.428813" id="Fill-408" fill="#416770"></path>
                    </g>
                </g>
            </g>
        </g>
    </g>
</svg>