<?xml version="1.0" encoding="UTF-8"?>
<svg width="72px" height="55px" viewBox="0 0 72 55" version="1.1" xmlns="http://www.w3.org/2000/svg" xmlns:xlink="http://www.w3.org/1999/xlink">
    <!-- Generator: Sketch 48.2 (47327) - http://www.bohemiancoding.com/sketch -->
    <title>04-top</title>
    <desc>Created with Sketch.</desc>
    <defs>
        <polygon id="path-1" points="71.3808 5.91293801 71.3808 53.8054177 0.503997097 53.8054177 0.503997097 5.91293801"></polygon>
        <polygon id="path-3" points="71.3808 0.924008118 71.3808 48.8164878 0.503997097 48.8164878 0.503997097 0.924008118 71.3808 0.924008118"></polygon>
    </defs>
    <g id="Desktop-HD-Copy-17" stroke="none" stroke-width="1" fill="none" fill-rule="evenodd" transform="translate(-1103.000000, -1799.000000)">
        <g id="Group-6-Copy" transform="translate(788.000000, 1608.000000)">
            <g id="Page-1">
                <g id="Top" transform="translate(0.000000, 0.314303)">
                    <g id="04-top" transform="translate(315.000000, 191.000000)">
                        <path d="M9.42996484,45.2296524 L6.3089971,43.6082502 C-1.4310029,39.1182133 -1.4310029,27.893121 6.3089971,23.4030841 L42.0440777,2.01429446 C45.6644003,-0.106000738 50.0337552,-0.106000738 53.6540777,2.01429446 L66.886981,9.2482428 C72.879239,12.7404937 72.879239,21.3463978 66.886981,24.8386487 L32.6499648,45.2296524 C25.5341584,49.3455196 16.67061,49.3455196 9.42996484,45.2296524" id="Fill-20" fill="#F6F1E6"></path>
                        <mask id="mask-2" fill="white">
                            <use xlink:href="#path-1"></use>
                        </mask>
                        <g id="Clip-18"></g>
                        <path d="M9.42996484,50.7185173 L6.3089971,49.0971151 C-1.4310029,44.6070782 -1.4310029,33.381986 6.3089971,28.8919491 L42.0440777,7.50315941 C45.6644003,5.38286421 50.0337552,5.38286421 53.6540777,7.50315941 L66.886981,14.7371077 C72.879239,18.2293587 72.879239,26.8352627 66.886981,30.3275137 L32.6499648,50.7185173 C25.5341584,54.8343845 16.67061,54.8343845 9.42996484,50.7185173" id="Fill-17" fill="#D2CFC6" mask="url(#mask-2)"></path>
                        <mask id="mask-4" fill="white">
                            <use xlink:href="#path-3"></use>
                        </mask>
                        <g id="Clip-21"></g>
                        <path d="M9.51951613,45.6321476 L6.39854839,44.0107454 C-1.34145161,39.5207085 -1.34145161,28.2956162 6.39854839,23.8055793 L42.133629,2.41678967 C45.7539516,0.296494465 50.1233065,0.296494465 53.743629,2.41678967 L66.9765323,9.65073801 C72.9687903,13.1429889 72.9687903,21.748893 66.9765323,25.2411439 L32.7395161,45.6321476 C25.6237097,49.7480148 16.7601613,49.7480148 9.51951613,45.6321476" id="Fill-20" fill="#F6F1E6" mask="url(#mask-4)"></path>
                    </g>
                </g>
            </g>
        </g>
    </g>
</svg>