<?xml version="1.0" encoding="UTF-8"?>
<svg width="133px" height="173px" viewBox="0 0 133 173" version="1.1" xmlns="http://www.w3.org/2000/svg" xmlns:xlink="http://www.w3.org/1999/xlink">
    <!-- Generator: Sketch 48.2 (47327) - http://www.bohemiancoding.com/sketch -->
    <title>05-top</title>
    <desc>Created with Sketch.</desc>
    <defs></defs>
    <g id="Desktop-HD-Copy-17" stroke="none" stroke-width="1" fill="none" fill-rule="evenodd" transform="translate(-995.000000, -1748.000000)">
        <g id="Group-6-Copy" transform="translate(788.000000, 1608.000000)">
            <g id="Page-1">
                <g id="Top" transform="translate(0.000000, 0.314303)">
                    <g id="05-top" transform="translate(207.000000, 140.000000)">
                        <polygon id="Fill-7" fill="#FEFEFE" points="71.0698616 44.5391446 59.30631 37.9587461 99.0374777 15.0408494 110.776062 21.6362148"></polygon>
                        <path d="M9.333,164.089576 L6.21203226,162.468173 C-1.52796774,157.978137 -1.52796774,146.753044 6.21203226,142.263007 L84.0864194,96.1827565 C87.7067419,94.0624613 92.0760968,94.0624613 95.6964194,96.1827565 L108.929323,103.416705 C114.921581,106.908956 114.921581,115.51486 108.929323,119.007111 L32.553,164.089576 C25.4371935,168.205443 16.5736452,168.205443 9.333,164.089576" id="Fill-25" fill="#F6F1E6"></path>
                        <path d="M9.333,169.578441 L6.21203226,167.957038 C-1.52796774,163.467001 -1.52796774,152.241909 6.21203226,147.751872 L84.0864194,101.671621 C87.7067419,99.5513262 92.0760968,99.5513262 95.6964194,101.671621 L108.929323,108.90557 C114.921581,112.397821 114.921581,121.003725 108.929323,124.495976 L32.553,169.578441 C25.4371935,173.694308 16.5736452,173.694308 9.333,169.578441" id="Fill-23" fill="#D2CFC6"></path>
                        <path d="M8.92596774,164.497041 L5.805,162.875638 C-1.935,158.385601 -1.935,147.160509 5.805,142.670472 L83.6793871,96.5902214 C87.2997097,94.4699262 91.6690645,94.4699262 95.2893871,96.5902214 L108.52229,103.82417 C114.514548,107.316421 114.514548,115.922325 108.52229,119.414576 L32.1459677,164.497041 C25.0301613,168.612908 16.1666129,168.612908 8.92596774,164.497041" id="Fill-25" fill="#F6F1E6"></path>
                        <polygon id="Fill-410" fill="#9B9372" points="87.5475726 115.271195 84.5089984 113.68721 84.3105048 40.4709218 87.349079 42.714693"></polygon>
                        <polygon id="Fill-412" fill="#7F785A" points="87.5475726 114.992937 90.1242435 113.475055 90.4538177 40.470797 87.349079 42.7145683"></polygon>
                        <polygon id="Fill-414" fill="#355F37" points="87.372299 87.5924871 74.2854571 80.1053506 74.2854571 76.641786 87.5957603 72.3949594 100.459141 76.641786 100.459141 80.1053506"></polygon>
                        <polygon id="Fill-416" fill="#46824B" points="87.372299 84.463555 63.8838958 70.9423077 63.8838958 64.7959461 87.7081152 57.1978059 110.860702 64.7959461 110.860702 70.9423077"></polygon>
                        <polygon id="Fill-418" fill="#4F9958" points="87.372299 79.7703439 54.3774281 60.6614952 54.3774281 51.9458347 87.9315765 41.3306391 120.36717 51.9458347 120.36717 60.6614952"></polygon>
                        <polyline id="Fill-420" fill="#FEFEFE" points="79.4311839 65.2434531 78.312629 65.9144642 76.8582581 55.7457779 95.7613355 55.7457779 76.8582581 66.696479"></polyline>
                        <polygon id="Fill-422" fill="#59B367" points="87.372299 71.5011926 42.409141 45.5762185 42.409141 33.7312517 88.0439313 19.316986 132.223102 33.7312517 132.223102 45.5762185"></polygon>
                        <polygon id="Fill-424" fill="#55A960" points="87.372299 19.5398664 87.372299 71.5008185 132.223102 45.5758443 132.223102 33.7308775 88.0439313 19.3166118"></polygon>
                        <polygon id="Fill-426" fill="#59B367" points="87.372299 59.6562258 42.409141 33.7312517 88.0439313 7.47201919 132.223102 33.7312517"></polygon>
                        <polygon id="Fill-428" fill="#4F9958" points="87.372299 49.7109188 54.3774281 30.714321 54.3774281 21.9986605 87.9315765 11.3822177 120.36717 21.9986605 120.36717 30.714321"></polygon>
                        <polygon id="Fill-430" fill="#4C9052" points="87.372299 11.4943439 87.372299 49.7107941 120.36717 30.7141963 120.36717 21.9985358 87.9315765 11.382093"></polygon>
                        <polygon id="Fill-432" fill="#4F9958" points="87.372299 41.1066362 54.3774281 21.9977875 87.9315765 2.66693137 120.36717 21.9977875"></polygon>
                        <polygon id="Fill-434" fill="#46824B" points="87.372299 34.0667572 63.8838958 20.54551 63.8838958 14.3991483 87.7081152 6.80100812 110.860702 14.3991483 110.860702 20.54551"></polygon>
                        <polygon id="Fill-436" fill="#407345" points="87.372299 6.91276015 87.372299 34.0662583 110.860702 20.5450111 110.860702 14.3998967 87.7081152 6.80050923"></polygon>
                        <polygon id="Fill-438" fill="#46824B" points="87.372299 27.9207697 63.8838958 14.3995225 87.7081152 0.542769742 110.860702 14.3995225"></polygon>
                        <polygon id="Fill-440" fill="#355F37" points="87.372299 20.6573867 74.2854571 13.1702502 74.2854571 9.70668561 87.5957603 5.45985904 100.459141 9.70668561 100.459141 13.1702502"></polygon>
                        <polygon id="Fill-442" fill="#2C4C2D" points="87.372299 5.57186052 87.372299 20.6571373 100.459141 13.1700007 100.459141 9.70643616 87.5957603 5.45960959"></polygon>
                        <polygon id="Fill-444" fill="#355F37" points="87.372299 17.1931985 74.2854571 9.70606199 87.5957603 1.99567085 100.459141 9.70606199"></polygon>
                    </g>
                </g>
            </g>
        </g>
    </g>
</svg>