<?xml version="1.0" encoding="UTF-8"?>
<svg width="48px" height="40px" viewBox="0 0 48 40" version="1.1" xmlns="http://www.w3.org/2000/svg" xmlns:xlink="http://www.w3.org/1999/xlink">
    <!-- Generator: Sketch 48.2 (47327) - http://www.bohemiancoding.com/sketch -->
    <title>06-top</title>
    <desc>Created with Sketch.</desc>
    <defs></defs>
    <g id="Desktop-HD-Copy-17" stroke="none" stroke-width="1" fill="none" fill-rule="evenodd" transform="translate(-950.000000, -1906.000000)">
        <g id="Group-6-Copy" transform="translate(788.000000, 1608.000000)">
            <g id="Page-1">
                <g id="Top" transform="translate(0.000000, 0.314303)">
                    <g id="06-top" transform="translate(162.000000, 298.000000)">
                        <path d="M9.0949471,30.1770022 L5.97397935,28.5556 C-1.76602065,24.0655631 -1.76602065,12.8404708 5.97397935,8.35043395 L18.0833342,1.86482509 C21.7036568,-0.255470111 26.0730116,-0.255470111 29.6933342,1.86482509 L42.9262374,9.09877343 C48.9184955,12.5910244 48.9184955,21.1969284 42.9262374,24.6891793 L32.3149471,30.1770022 C25.1991406,34.2928694 16.3355923,34.2928694 9.0949471,30.1770022" id="Fill-15" fill="#F6F1E6"></path>
                        <path d="M9.0949471,35.6658672 L5.97397935,34.0444649 C-1.76602065,29.554428 -1.76602065,18.3293358 5.97397935,13.8392989 L18.0833342,7.35369004 C21.7036568,5.23339483 26.0730116,5.23339483 29.6933342,7.35369004 L42.9262374,14.5876384 C48.9184955,18.0798893 48.9184955,26.6857934 42.9262374,30.1780443 L32.3149471,35.6658672 C25.1991406,39.7817343 16.3355923,39.7817343 9.0949471,35.6658672" id="Fill-13" fill="#D2CFC6"></path>
                        <path d="M8.92596774,30.9023985 L5.805,29.2809963 C-1.935,24.7909594 -1.935,13.5658672 5.805,9.07583026 L17.9143548,2.5902214 C21.5346774,0.469926199 25.9040323,0.469926199 29.5243548,2.5902214 L42.7572581,9.82416974 C48.7495161,13.3164207 48.7495161,21.9223247 42.7572581,25.4145756 L32.1459677,30.9023985 C25.0301613,35.0182657 16.1666129,35.0182657 8.92596774,30.9023985" id="Fill-15" fill="#F6F1E6"></path>
                    </g>
                </g>
            </g>
        </g>
    </g>
</svg>