<?xml version="1.0" encoding="UTF-8"?>
<svg width="24px" height="15px" viewBox="0 0 24 15" version="1.1" xmlns="http://www.w3.org/2000/svg" xmlns:xlink="http://www.w3.org/1999/xlink">
    <!-- Generator: Sketch 48.2 (47327) - http://www.bohemiancoding.com/sketch -->
    <title>Shape</title>
    <desc>Created with Sketch.</desc>
    <defs></defs>
    <g id="Project/OhMyGeorge" stroke="none" stroke-width="1" fill="none" fill-rule="evenodd" transform="translate(-1248.000000, -74.000000)">
        <g id="Group-2" transform="translate(1248.000000, 69.000000)" fill="#FFFFFF" fill-rule="nonzero">
            <g id="noun_70458_cc" transform="translate(0.000000, 5.000000)">
                <path d="M0.292626115,5.94314152 L4.12274771,1.15548953 C4.45405322,0.743751462 5.05633984,0.675766803 5.46807792,1.00707232 C5.88173105,1.33742031 5.94875817,1.94066446 5.61745266,2.35240253 L3.03116305,5.58406762 L16.3599862,5.58406762 C19.645273,5.58406762 23.0828071,7.73300522 23.0828071,11.32925 L23.0828071,13.2443108 C23.0828071,13.7728676 22.654791,14.2018412 22.1252767,14.2018412 C21.5976775,14.2018412 21.1677463,13.7728676 21.1677463,13.2443108 L21.1677463,11.32925 C21.1677463,8.93159389 18.7049781,7.49912842 16.3599862,7.49912842 L3.03116305,7.49912842 L5.61649513,10.7307935 C5.94780064,11.144686 5.87981599,11.7467333 5.46712038,12.0770812 C5.29189232,12.2187957 5.08123563,12.2867804 4.87057895,12.2867804 C4.59002254,12.2867804 4.31138119,12.1642165 4.12179018,11.9277065 L0.291668585,7.14005452 C0.0130272389,6.79055592 0.0130272389,6.29264012 0.292626115,5.94314152 Z" id="Shape"></path>
            </g>
        </g>
    </g>
</svg>