<?xml version="1.0" encoding="UTF-8"?>
<svg width="144px" height="164px" viewBox="0 0 144 164" version="1.1" xmlns="http://www.w3.org/2000/svg" xmlns:xlink="http://www.w3.org/1999/xlink">
    <!-- Generator: Sketch 48.2 (47327) - http://www.bohemiancoding.com/sketch -->
    <title>01-top</title>
    <desc>Created with Sketch.</desc>
    <defs></defs>
    <g id="Desktop-HD-Copy-17" stroke="none" stroke-width="1" fill="none" fill-rule="evenodd" transform="translate(-394.000000, -1643.000000)">
        <g id="Illustration" transform="translate(274.000000, 1643.000000)">
            <g id="Top">
                <g id="01-top" transform="translate(120.314847, 0.000000)">
                    <path d="M29.4844985,159.75646 L6.2464119,146.334206 C-1.98651019,141.550036 -1.98651019,129.589611 6.2464119,124.805441 L91.1065924,75.5072264 C94.9574753,73.248035 99.6050926,73.248035 103.455976,75.5072264 L137.449976,95.0425873 C143.823852,98.7636084 143.823852,107.933268 137.449976,111.654289 L54.1832647,159.889354 C46.614288,164.14195 37.1862643,164.14195 29.4844985,159.75646" id="Fill-27" fill="#CBB481"></path>
                    <path d="M30.0456513,154.991516 L6.80756479,141.569262 C-1.4253573,136.785092 -1.4253573,124.824667 5.96435423,120.529545 L90.8258626,71.2326599 C95.5186282,68.4830911 100.166246,68.4830911 104.017128,70.7422825 L138.011129,90.2776434 C144.385005,93.9986645 144.385005,103.168324 138.011129,106.889345 L54.7444176,155.12441 C47.1754409,159.377006 37.7474172,159.377006 30.0456513,154.991516" id="Fill-29" fill="#FEFCEE"></path>
                    <path d="M100.155503,92.783263 L101.816695,94.4457621 C103.051633,93.5819536 104.262669,92.8377494 105.43918,92.1945443 L105.43918,89.7506308 L107.048584,91.3626303 C115.702447,87.1884419 122.146701,88.4682074 122.146701,88.4682074 C96.928729,72.3016996 90.2149138,92.1932154 88.4342125,103.106439 C87.9203188,103.737683 87.4993774,104.460625 87.1873231,105.280578 C86.4012119,98.2159538 83.2740294,82.8760443 70.9990081,81.8726975 L60.1926339,88.1505917 C62.4832453,88.5678776 65.2027654,89.350621 68.1971588,90.7951746 L69.8078902,89.1831751 L69.8078902,91.6270886 C70.9844013,92.2702936 72.1941097,93.0144979 73.4303759,93.8783063 L75.0915671,92.2158073 L75.0915671,95.0969408 C78.8534814,98.0086398 82.7933329,102.060566 86.6521832,107.636782 C86.6349206,107.809544 86.6136744,107.97699 86.6043791,108.155067 C86.1409453,107.72715 85.682823,107.363021 85.2273565,107.033445 C78.6808556,99.502364 60.6998881,83.5538017 53.8107914,125.78872 C53.8107914,125.78872 56.8410379,119.007159 61.770168,113.042894 C61.8007095,112.105994 61.8339068,111.400329 61.8339068,111.400329 L62.6359527,112.030245 C63.8762026,110.620244 65.2226837,109.284663 66.6607893,108.127159 C66.6913308,106.75171 66.7510859,105.518458 66.7510859,105.518458 L68.4229002,106.832776 C72.239258,104.307797 76.598723,103.20478 81.2410288,105.252671 C72.4928851,103.732368 65.9317773,117.70746 65.9317773,117.70746 C66.6860192,116.10875 71.085321,115.37119 75.8006607,114.706722 C74.2244545,116.911427 73.0306808,119.800534 72.640281,123.42853 L75.5974935,124.788031 L72.518115,125.178739 C72.3879817,128.994114 73.0877801,133.511168 75.0397794,138.783058 C75.0397794,138.783058 78.9079249,134.780302 82.6552323,129.620043 L80.3101774,128.542276 L83.7255122,128.109043 C86.2312419,124.467758 88.5059186,120.417161 89.2973414,116.84498 C90.7341191,119.601194 92.9118598,122.434486 95.2064548,125.003319 L98.6483474,125.003319 L96.4573278,126.368136 C97.2407833,127.201379 98.021583,127.996083 98.7784807,128.740287 L106.286375,124.39068 C106.250521,123.081677 106.142962,121.84178 105.957058,120.686935 L102.852449,120.686935 L105.61579,118.965962 C104.143159,112.765146 100.536608,109.072033 96.9340406,107.456047 C97.7878743,107.405547 98.6881841,107.397573 99.6336423,107.450731 L100.73048,105.042699 L100.73048,107.537112 C103.086158,107.77632 105.679528,108.392947 108.449508,109.577029 L109.145323,108.047423 L109.145323,109.872052 C112.334916,111.331224 115.746268,113.579784 119.273145,116.868901 L122.238325,115.150587 C118.77917,106.632106 111.775874,94.613208 100.772972,98.7966989 C99.3149485,98.8192908 97.6989056,98.9335793 96.09083,99.2232874 C97.4598853,97.8890355 98.8196453,96.6983088 100.155503,95.6643965 L100.155503,92.783263 Z" id="Fill-31" fill-opacity="0.05" fill="#020203"></path>
                    <path d="M94.5605688,110.188871 C94.5605688,112.056026 91.8370651,113.571013 88.4788296,113.571013 C85.1192662,113.571013 82.3957625,112.056026 82.3957625,110.188871 C82.3957625,108.321716 85.1192662,106.806728 88.4788296,106.806728 C91.8370651,106.806728 94.5605688,108.321716 94.5605688,110.188871" id="Fill-547" fill-opacity="0.1" fill="#020203"></path>
                    <path d="M85.4416781,110.230201 C85.4416781,111.208298 88.7627326,113.163163 92.2789871,110.230201 C92.2789871,106.515824 90.8143237,100.845254 92.2789871,80.4141901 L93.7449784,59.9831263 C93.7449784,59.9831263 91.9868511,35.1532839 88.3723328,28.993665 C84.7578144,22.835375 89.5926643,46.6206736 90.0321961,56.0733962 C90.0321961,56.0733962 85.4416781,105.342374 85.4416781,110.230201" id="Fill-549" fill="#916743"></path>
                    <path d="M87.7958954,27.7755622 C87.7945675,27.3914996 87.5834329,26.7110843 87.2501324,25.8286708 C87.3789378,26.5781907 87.5077432,27.3330264 87.6564669,28.1237434 C87.6763853,28.2287294 87.7958954,27.9562975 87.7958954,27.7755622" id="Fill-551" fill="#61B346"></path>
                    <path d="M117.92693,29.5959389 C117.954815,29.6251754 117.988013,29.6504252 118.01457,29.6809908 C118.01457,29.6809908 117.994652,29.6490963 117.92693,29.5959389" id="Fill-553" fill="#61B346"></path>
                    <path d="M87.094238,30.7773631 C88.9572686,38.3204044 101.828513,16.633496 106.241093,17.3125823 C106.241093,17.3125823 82.867562,13.6606659 87.094238,30.7773631" id="Fill-555" fill="#579D3E"></path>
                    <path d="M87.6564669,28.2806908 C87.6564669,28.2806908 92.3744624,25.2427428 99.6340407,25.6467394 L100.72955,23.2387072 L100.72955,25.7331202 C103.085228,25.9723287 105.679927,26.5889551 108.449907,27.7717082 L109.145721,26.2434317 L109.145721,28.068061 C113.985883,30.2820686 119.326659,34.2595744 124.825454,41.0398064 C124.825454,41.0398064 113.38966,-5.16597336 87.6564669,28.2806908" id="Fill-557" fill="#61B346"></path>
                    <path d="M53.8113226,43.9837986 C53.8113226,43.9837986 56.841569,37.2035665 61.7706992,31.2393013 C61.8012407,30.3010724 61.8344379,29.5954073 61.8344379,29.5954073 L62.635156,30.225323 C63.8754059,28.8153218 65.2232149,27.4810699 66.6599926,26.3235666 C66.691862,24.9467887 66.751617,23.714865 66.751617,23.714865 L68.4234314,25.0278539 C73.9567518,21.3666349 80.6294023,20.6915353 87.6565997,28.2810895 C87.6565997,28.2810895 62.3031833,-8.08391839 53.8113226,43.9837986" id="Fill-559" fill="#61B346"></path>
                    <path d="M87.7958954,27.5554903 C93.0012268,33.3217441 67.8390267,31.8639012 65.9321757,35.903867 C65.9321757,35.903867 75.9856359,14.4721143 87.7958954,27.5554903" id="Fill-561" fill="#579D3E"></path>
                    <path d="M102.852184,38.8825444 L105.615524,37.1615722 C102.347585,23.3964519 88.5627523,21.9545562 87.6571309,28.2802921 C87.0250549,32.6936889 90.9277256,38.4067853 95.2061893,43.1989289 L98.6480819,43.1989289 L96.4570623,44.5637463 C100.823167,49.2123648 105.164041,52.6955064 105.164041,52.6955064 C106.438816,47.2202896 106.564966,42.6500783 105.956792,38.8825444 L102.852184,38.8825444 Z" id="Fill-563" fill="#61B346"></path>
                    <path d="M75.597759,42.98404 L72.6405465,41.6245383 C74.153014,27.5577495 87.6483668,24.3922237 89.3414274,30.5545005 C90.5219222,34.8522799 87.3681818,41.0118988 83.7257778,46.3037224 L80.310443,46.7369555 L82.6554979,47.8147227 C78.9081905,52.9763106 75.040045,56.9777372 75.040045,56.9777372 C73.0880457,51.7071766 72.3882473,47.1887938 72.5183806,43.3747472 L75.597759,42.98404 Z" id="Fill-565" fill="#61B346"></path>
                    <path d="M53.0991748,6.09636153 C53.0991748,6.09636153 59.5434282,4.81659605 68.1972916,8.98945546 L69.8066951,7.37878488 L69.8066951,9.8226984 C70.9845341,10.4645745 72.1942425,11.2101077 73.4291808,12.0739162 L75.090372,10.4114171 L75.090372,13.2925506 C79.1125528,16.404919 83.3392288,20.7970528 87.4503783,26.9872373 C87.4503783,26.9872373 86.6841854,-15.4350614 53.0991748,6.09636153" id="Fill-567" fill="#61B346"></path>
                    <path d="M122.147232,6.66421594 C122.147232,6.66421594 115.702978,5.38445046 107.049115,9.55730986 L105.439711,7.94663929 L105.439711,10.3905528 C104.261872,11.0324289 103.052164,11.7779621 101.817226,12.6417706 L100.156034,10.9792715 L100.156034,13.860405 C96.1338537,16.9727734 91.9071777,21.3649072 87.7960282,27.5550917 C87.7960282,27.5550917 88.5622211,-14.867207 122.147232,6.66421594" id="Fill-569" fill="#61B346"></path>
                </g>
            </g>
        </g>
    </g>
</svg>