<?xml version="1.0" encoding="UTF-8"?>
<svg width="143px" height="95px" viewBox="0 0 143 95" version="1.1" xmlns="http://www.w3.org/2000/svg" xmlns:xlink="http://www.w3.org/1999/xlink">
    <!-- Generator: Sketch 48.2 (47327) - http://www.bohemiancoding.com/sketch -->
    <title>02-top</title>
    <desc>Created with Sketch.</desc>
    <defs></defs>
    <g id="Desktop-HD-Copy-17" stroke="none" stroke-width="1" fill="none" fill-rule="evenodd" transform="translate(-274.000000, -1781.000000)">
        <g id="Illustration" transform="translate(274.000000, 1643.000000)">
            <g id="Top">
                <g id="02-top" transform="translate(0.000000, 138.209356)">
                    <path d="M29.4127781,91.3632947 L6.17469157,77.94104 C-2.05823052,73.15687 -2.05823052,61.1964449 6.17469157,56.4122749 L91.0348721,7.11406081 C94.885755,4.85486941 99.5333723,4.85486941 103.384255,7.11406081 L137.378256,26.6494217 C143.752131,30.3704428 143.752131,39.540102 137.378256,43.2611231 L54.1115444,91.4961884 C46.5425676,95.7487839 37.1145439,95.7487839 29.4127781,91.3632947" id="Fill-11" fill="#CBB481"></path>
                    <path d="M6.17469157,56.412142 C-2.05823052,61.196312 -2.05823052,73.1567371 6.17469157,77.9409071 L29.4127781,91.3631619 C37.1145439,95.748651 46.5425676,95.748651 54.1115444,91.4960555 L107.669358,60.4720419 L107.669358,55.1217451 L48.4188771,31.8720077 L6.17469157,56.412142 Z" id="Fill-13" fill="#517D84"></path>
                    <path d="M29.4127781,85.9436275 L6.17469157,72.5213727 C-2.05823052,67.7372027 -2.05823052,55.7767777 6.17469157,50.9926077 L91.0348721,1.69439355 C94.885755,-0.564797849 99.5333723,-0.564797849 103.384255,1.69439355 L137.378256,21.2297544 C143.752131,24.9507756 143.752131,34.1204347 137.378256,37.8414559 L54.1115444,86.0765211 C46.5425676,90.3291167 37.1145439,90.3291167 29.4127781,85.9436275" id="Fill-15" fill="#FEFCEE"></path>
                    <path d="M51.3912276,38.1618624 C51.3912276,38.9618819 50.9118591,39.6104027 50.3196198,39.6104027 C49.7287085,39.6104027 49.2480121,38.9618819 49.2480121,38.1618624 C49.2480121,37.3618428 49.7287085,36.713322 50.3196198,36.713322 C50.9118591,36.713322 51.3912276,37.3618428 51.3912276,38.1618624" id="Fill-277" fill="#BEDBE4"></path>
                    <path d="M53.0824291,43.2098262 C53.0824291,43.672296 52.8049,44.047056 52.4623042,44.047056 C52.1210363,44.047056 51.8435071,43.672296 51.8435071,43.2098262 C51.8435071,42.7473564 52.1210363,42.3725964 52.4623042,42.3725964 C52.8049,42.3725964 53.0824291,42.7473564 53.0824291,43.2098262" id="Fill-279" fill="#BEDBE4"></path>
                    <path d="M84.2970221,68.6947012 L107.640012,55.1727762 C107.20712,54.3129545 106.669324,53.512935 105.974837,52.8179014 C98.239874,45.0768485 83.1404293,57.0771417 71.6740935,44.9067447 C60.2077576,32.7376767 70.9649999,28.3694637 53.3492024,26.1860217 C52.139494,26.0358519 51.0068032,25.8630902 49.9338676,25.6757102 L29.1019189,37.7770025 L84.2970221,68.6947012 Z" id="Fill-571" fill="#BEDBE4"></path>
                    <path d="M102.072432,56.5468962 C94.337469,48.8058433 79.2380243,60.8061364 67.7716884,48.6370684 C56.3053526,36.4680004 67.0625948,32.0997874 49.4467973,29.9150164 C47.4974538,29.67315 45.7419824,29.3767973 44.1445299,29.0392475 L6.17482436,51.0969291 C-0.995785206,55.2631439 -1.91468554,64.8686941 3.40351655,70.4409232 C3.44600905,70.4821203 3.48451788,70.529962 3.52701038,70.571159 C3.70494773,70.7518943 3.91077078,70.9140245 4.10198704,71.0867862 C4.35030259,71.3060606 4.59596236,71.5346377 4.85357315,71.7326491 C5.26920293,72.0502649 5.70475106,72.3519334 6.17482436,72.6256942 L29.4129109,86.047949 C37.1146767,90.4334382 46.5427004,90.4334382 54.1116772,86.1808426 L103.097564,57.8040697 C102.793477,57.3602051 102.460176,56.9349455 102.072432,56.5468962" id="Fill-573" fill="#8ACDDC"></path>
                    <path d="M72.3308682,60.4752313 C72.3308682,61.2752509 71.8514997,61.9237717 71.2592604,61.9237717 C70.6683491,61.9237717 70.1876527,61.2752509 70.1876527,60.4752313 C70.1876527,59.6752118 70.6683491,59.0266909 71.2592604,59.0266909 C71.8514997,59.0266909 72.3308682,59.6752118 72.3308682,60.4752313" id="Fill-575" fill="#BEDBE4"></path>
                    <path d="M74.021937,65.5231951 C74.021937,65.9856649 73.7444078,66.3604249 73.401812,66.3604249 C73.0605441,66.3604249 72.783015,65.9856649 72.783015,65.5231951 C72.783015,65.0607254 73.0605441,64.6859654 73.401812,64.6859654 C73.7444078,64.6859654 74.021937,65.0607254 74.021937,65.5231951" id="Fill-577" fill="#BEDBE4"></path>
                    <path d="M50.5457596,36.2155025 C50.5457596,37.0155221 50.0663911,37.6640429 49.4741518,37.6640429 C48.8832405,37.6640429 48.4025441,37.0155221 48.4025441,36.2155025 C48.4025441,35.415483 48.8832405,34.7669622 49.4741518,34.7669622 C50.0663911,34.7669622 50.5457596,35.415483 50.5457596,36.2155025" id="Fill-579" fill="#BEDBE4"></path>
                    <path d="M52.2368284,41.2634664 C52.2368284,41.7259361 51.9592992,42.1006961 51.6167034,42.1006961 C51.2741076,42.1006961 50.9979064,41.7259361 50.9979064,41.2634664 C50.9979064,40.8009966 51.2741076,40.4262366 51.6167034,40.4262366 C51.9592992,40.4262366 52.2368284,40.8009966 52.2368284,41.2634664" id="Fill-581" fill="#BEDBE4"></path>
                </g>
            </g>
        </g>
    </g>
</svg>