<?xml version="1.0" encoding="UTF-8"?>
<svg width="215px" height="171px" viewBox="0 0 215 171" version="1.1" xmlns="http://www.w3.org/2000/svg" xmlns:xlink="http://www.w3.org/1999/xlink">
    <!-- Generator: Sketch 48.2 (47327) - http://www.bohemiancoding.com/sketch -->
    <title>03-top</title>
    <desc>Created with Sketch.</desc>
    <defs></defs>
    <g id="Desktop-HD-Copy-17" stroke="none" stroke-width="1" fill="none" fill-rule="evenodd" transform="translate(-386.000000, -1740.000000)">
        <g id="Illustration" transform="translate(274.000000, 1643.000000)">
            <g id="Top">
                <g id="03-top" transform="translate(112.516811, 96.657221)">
                    <path d="M76.9455663,167.967448 L6.62578855,127.950524 C-1.60713354,123.166354 -1.60713354,111.205929 6.62578855,106.421759 L116.245818,43.0487826 C120.096701,40.7895912 124.744319,40.7895912 128.595201,43.0487826 L209.406643,89.0445904 C215.780519,92.7656116 215.780519,101.935271 209.406643,105.656292 L101.777122,167.834555 C94.0753559,172.352938 84.6473322,172.352938 76.9455663,167.967448" id="Fill-1" fill="#CBB481"></path>
                    <path d="M101.777254,167.834555 L107.033046,164.797936 C107.97452,164.13081 108.862879,163.587275 109.69945,163.257699 L109.69945,156.744583 L0.850924862,114.032576 C0.833662284,114.100352 0.823039158,114.168128 0.80710447,114.235903 C0.715480015,114.621295 0.643773919,115.009344 0.588002512,115.398723 C0.570739933,115.524971 0.552149464,115.65122 0.537542666,115.778798 C0.489738603,116.208045 0.461852899,116.641278 0.457869227,117.073182 C0.456541336,117.184813 0.463180789,117.296443 0.46450868,117.408074 C0.471148133,117.78815 0.493722275,118.168225 0.534886885,118.546972 C0.54551001,118.642656 0.550821573,118.739668 0.562772589,118.835351 C0.619871887,119.272571 0.703528999,119.707133 0.80710447,120.137709 C0.833662284,120.251997 0.864203769,120.366286 0.896073145,120.480574 C1.01292752,120.920452 1.14704448,121.356343 1.31303081,121.782932 C1.32498183,121.812168 1.33958863,121.840076 1.35153964,121.869312 C1.46175457,122.14706 1.59985519,122.414176 1.73397215,122.68395 C1.79505512,122.811528 1.84684286,122.943093 1.91456528,123.069342 C1.96502513,123.165025 2.01548497,123.262038 2.0686006,123.356392 C2.2956699,123.757731 2.54265756,124.149767 2.81753093,124.527185 C2.86799077,124.596289 2.92376218,124.661407 2.97554992,124.729183 C3.0777975,124.864734 3.19863555,124.990983 3.30885047,125.122548 C3.47483681,125.323217 3.6328558,125.527874 3.81344892,125.717911 C3.86922033,125.777714 3.92233596,125.838845 3.97943526,125.897318 C4.31671948,126.241512 4.68321731,126.565773 5.06963349,126.875415 C5.15461849,126.943191 5.24358717,127.009637 5.33122795,127.076084 C5.74021827,127.385726 6.16514328,127.683408 6.62592134,127.950524 L76.9456991,167.967448 C84.647465,172.352938 94.0754887,172.352938 101.777254,167.834555" id="Fill-3" fill="#517D84"></path>
                    <path d="M76.5323268,162.045443 L6.52858696,122.833854 C-1.70433513,118.049684 -1.70433513,106.089259 6.52858696,101.305089 L116.149945,37.9307838 C120.000828,35.6715924 124.648445,35.6715924 128.499328,37.9307838 L208.213932,82.6401815 C214.587807,86.3612026 214.587807,95.5308618 208.213932,99.251883 L101.363882,161.91255 C93.6621163,166.430933 84.2340926,166.430933 76.5323268,162.045443" id="Fill-5" fill="#FEFCEE"></path>
                    <polygon id="Fill-7" fill-opacity="0.05" fill="#020203" points="140.569057 81.1852623 78.948291 116.790119 115.920751 138.152767 177.541517 102.54791"></polygon>
                    <polygon id="Fill-9" fill-opacity="0.05" fill="#020203" points="100.649211 57.9574524 39.0284453 93.5623088 76.0009049 114.924957 137.621671 79.3201004"></polygon>
                    <polygon id="Fill-33" fill="#A48137" points="54.0213931 93.3759919 77.0443614 106.678642 75.9302611 108.173696 52.8634725 94.9228736"></polygon>
                    <polygon id="Fill-35" fill="#E0C898" points="122.581716 46.8125954 72.5348447 114.082013 70.9387202 113.159731 120.985591 45.8903138"></polygon>
                    <polygon id="Fill-37" fill="#A48137" points="122.639213 47.8172711 72.5100132 115.032202 72.5100132 114.06075 122.639213 46.8458188"></polygon>
                    <path d="M72.509482,115.03898 L70.9385874,114.183145 C70.9385874,114.183145 70.8071262,113.95191 70.8071262,113.671504 C70.8071262,113.349902 70.9385874,113.159864 70.9385874,113.159864 L72.509482,114.067527 L72.509482,115.03898 Z" id="Fill-39" fill="#A48137"></path>
                    <polygon id="Fill-41" fill="#E0C898" points="95.9201944 69.3512191 48.9925384 79.379371 47.3964139 78.4570893 94.3240698 68.4289374"></polygon>
                    <polyline id="Fill-43" fill="#A48137" points="83.7605668 71.9409169 71.6209904 54.1823436 72.2557221 53.3318244 84.8427977 71.6910769"></polyline>
                    <polyline id="Fill-45" fill="#E0C898" points="83.7605668 71.9409169 71.6209904 54.2022776 70.0992277 53.23747 82.3277728 71.1249501"></polyline>
                    <polygon id="Fill-47" fill="#A48137" points="71.621256 54.1826093 70.0994933 53.2377358 70.6691584 52.462966 72.2559877 53.3320902"></polygon>
                    <polygon id="Fill-49" fill="#A48137" points="95.6959136 70.3823406 48.9926712 80.4397291 48.9926712 79.3792381 95.6959136 69.3882964"></polygon>
                    <polygon id="Fill-51" fill="#E0C898" points="98.0092319 32.5507188 47.9623609 99.820136 46.3662363 98.8978544 96.4131074 31.6284372"></polygon>
                    <polygon id="Fill-53" fill="#A48137" points="98.0093647 34.2170718 47.9372637 101.471871 47.9372637 99.7987402 98.0093647 32.5439413"></polygon>
                    <polygon id="Fill-55" fill="#E0C898" points="66.5933308 76.1891269 66.3888356 76.3804937 66.1630942 76.1386274 66.3675893 75.9472606"></polygon>
                    <path d="M47.9371309,101.472269 L46.3662363,100.616435 C46.3662363,100.616435 46.2347751,99.6901661 46.2347751,99.4097606 C46.2347751,99.088158 46.3662363,98.8981202 46.3662363,98.8981202 L47.9371309,99.8057835 L47.9371309,101.472269 Z" id="Fill-57" fill="#A48137"></path>
                    <polygon id="Fill-59" fill="#E0C898" points="53.6668463 92.1964282 76.6898146 105.499079 75.5757143 106.994132 52.5089257 93.7433099"></polygon>
                    <path d="M73.1650616,92.2539712 C101.188866,93.2586469 115.385345,55.7999246 115.385345,50.5001274 L112.069602,48.593104 C112.069602,53.8929013 97.9010089,91.3130844 69.8772044,90.3084087" id="Fill-61" fill="#C92B3E"></path>
                    <polygon id="Fill-63" fill="#A48137" points="95.455167 37.4754903 118.478135 50.7781408 117.364035 52.2731939 94.2972464 39.0223719"></polygon>
                    <polygon id="Fill-65" fill="#E0C898" points="95.1006202 36.2960595 118.185999 49.6505385 117.071899 51.1455916 93.9426996 37.8429411"></polygon>
                    <polygon id="Fill-67" fill="#A48137" points="110.705195 86.0154135 83.0120348 70.8469367 83.981395 70.4349665 111.159333 85.3974582"></polygon>
                    <polygon id="Fill-69" fill="#E0C898" points="110.705195 86.0154135 83.0120348 70.8469367 83.9853787 71.6682192 111.163317 86.6307109"></polygon>
                    <polygon id="Fill-71" fill="#A48137" points="77.0000099 94.1912942 51.0530264 78.9430813 51.1844875 79.8334684 77.1527173 95.0657342"></polygon>
                    <polygon id="Fill-73" fill="#E0C898" points="121.831989 85.5986591 74.9043328 95.626811 73.3082083 94.7045294 120.235864 84.6763774"></polygon>
                    <path d="M72.5096148,115.544241 L70.9387202,114.688406 C70.9387202,114.688406 70.8059311,113.952176 70.8059311,113.670441 C70.8059311,113.350168 70.9387202,113.16013 70.9387202,113.16013 L72.5096148,114.067793 L72.5096148,115.544241 Z" id="Fill-75" fill="#A48137"></path>
                    <polygon id="Fill-77" fill="#A48137" points="121.607841 86.6297806 74.9045984 96.6871691 74.9045984 95.6266781 121.607841 85.6357364"></polygon>
                    <polygon id="Fill-79" fill="#A48137" points="48.9922729 80.4391975 47.3961483 79.4584427 47.3961483 78.453767 48.9922729 79.3787065"></polygon>
                    <polygon id="Fill-81" fill="#A48137" points="74.9040672 96.6866376 73.3079427 95.7244878 73.3079427 94.7184832 74.9040672 95.6261466"></polygon>
                    <polygon id="Fill-83" fill="#E0C898" points="77.0520632 94.2181387 51.1143749 78.9048079 52.7503362 78.5566266 78.9310285 93.8646417"></polygon>
                    <path d="M113.686176,87.2624871 L112.504354,86.2485089" id="Fill-85" fill="#E0C898"></path>
                    <polygon id="Fill-87" fill="#A48137" points="100.505401 69.8136888 98.9836381 68.8688152 99.5533032 68.0940455 101.140133 68.9631697"></polygon>
                    <polygon id="Fill-89" fill="#E0C898" points="77.5314317 61.4577372 77.3269365 61.649104 77.1011951 61.4072376 77.3056903 61.2158708"></polygon>
                    <polygon id="Fill-91" fill="#E0C898" points="88.9188909 93.261039 88.7143957 93.4524058 88.4886543 93.2105394 88.6931494 93.0191726"></polygon>
                    <path d="M56.1496035,81.9277389 C84.173408,82.9324146 98.3659034,45.6863221 98.3659034,40.3865249 L95.0501604,38.4795015 C95.0501604,43.7792988 80.8855507,80.9868521 52.8617462,79.9821764" id="Fill-93" fill="#EDEBE2"></path>
                    <path d="M59.4680023,83.8802118 C87.4918068,84.8848875 101.680318,47.6082295 101.680318,42.3084323 L98.3659034,40.4014089 C98.3659034,45.7012062 84.2039495,82.939325 56.180145,81.9346493" id="Fill-95" fill="#E52634"></path>
                    <path d="M52.3239505,79.6638962 L53.0609298,80.0997872 C80.9333548,80.894491 95.0488325,43.7653449 95.0488325,38.480166 L94.508381,38.1705239 C94.4220681,43.6483985 80.2614421,80.665914 52.3239505,79.6638962" id="Fill-97" fill="#E52634"></path>
                    <path d="M62.786401,85.8325519 C90.8102055,86.8372276 105.00934,49.5153857 105.00934,44.2155885 L101.694925,42.3085652 C101.694925,47.6083624 87.5223482,84.8916651 59.4985438,83.8869894" id="Fill-99" fill="#EDEBE2"></path>
                    <path d="M66.1049326,87.7848919 C94.1287371,88.7895676 108.331856,51.4225419 108.331856,46.1227447 L105.016113,44.2157214 C105.016113,49.5155186 90.8408798,86.8440051 62.8170753,85.8393294" id="Fill-101" fill="#E52634"></path>
                    <path d="M69.4233313,89.7372319 C97.4471358,90.7419077 111.646271,53.3283692 111.646271,48.028572 L108.331856,46.1228776 C108.331856,51.4213459 94.1592786,88.7963452 66.1354741,87.7916695" id="Fill-103" fill="#EDEBE2"></path>
                    <path d="M72.7417301,91.689572 C100.765535,92.6942477 114.962014,55.2355254 114.962014,49.9357282 L111.646271,48.0287049 C111.646271,53.3285021 97.4776773,90.7486852 69.4538728,89.7440095" id="Fill-105" fill="#E52634"></path>
                    <polygon id="Fill-107" fill="#E0C898" points="122.581716 46.8125954 72.5348447 114.082013 70.9387202 113.159731 120.985591 45.8903138"></polygon>
                    <polygon id="Fill-109" fill="#A48137" points="122.639213 48.3297089 72.5100132 115.54464 72.5100132 114.060218 122.639213 46.8452873"></polygon>
                    <polyline id="Fill-111" fill="#A48137" points="112.644844 87.5719963 100.505268 69.813423 101.14 68.9629039 113.727075 87.3221563"></polyline>
                    <polyline id="Fill-113" fill="#E0C898" points="112.644844 87.5719963 100.505268 69.8333571 98.9835053 68.8685495 111.21205 86.7560296"></polyline>
                    <polygon id="Fill-115" fill="#E0C898" points="103.734167 73.3736429 103.529672 73.5650097 103.30393 73.3231433 103.508426 73.1317765"></polygon>
                    <polygon id="Fill-117" fill="#A48137" points="100.505401 69.8136888 98.9836381 68.8688152 99.5533032 68.0940455 101.140133 68.9631697"></polygon>
                    <polygon id="Fill-119" fill="#EDEBE2" points="100.283245 39.2936078 98.3803774 40.392638 95.0486997 38.4802989 96.9621902 37.3879134"></polygon>
                    <polygon id="Fill-121" fill="#E52634" points="103.600581 41.2096679 101.697714 42.3086981 98.3660362 40.396359 100.279527 39.3039735"></polygon>
                    <polygon id="Fill-123" fill="#EDEBE2" points="106.917918 43.1255951 105.01505 44.2246252 101.683373 42.3122862 103.596863 41.2199007"></polygon>
                    <polygon id="Fill-125" fill="#E52634" points="110.235254 45.0413894 108.332387 46.1404196 105.000709 44.2280805 106.914199 43.135695"></polygon>
                    <polygon id="Fill-127" fill="#EDEBE2" points="113.55259 46.9573166 111.649723 48.0563467 108.318046 46.1440077 110.231536 45.0516222"></polygon>
                    <polygon id="Fill-129" fill="#E52634" points="116.869927 48.8733767 114.96706 49.9724068 111.635382 48.0600678 113.548872 46.9676823"></polygon>
                    <polygon id="Fill-131" fill="#E52634" points="72.750627 92.4975652 69.422933 90.5573184 69.422933 89.7373648 72.7413317 91.689572"></polygon>
                    <polygon id="Fill-133" fill="#EDEBE2" points="69.4625041 90.5651591 66.1148918 88.612952 66.1148918 87.7929984 69.4532089 89.757166"></polygon>
                    <polygon id="Fill-135" fill="#E52634" points="66.1142278 88.6128191 62.7865338 86.6725724 62.8170753 85.8393294 66.1049326 87.7848919"></polygon>
                    <polygon id="Fill-137" fill="#EDEBE2" points="62.7869322 86.6719079 59.4658776 84.694451 59.4658776 83.8758263 62.8121621 85.8519543"></polygon>
                    <polygon id="Fill-139" fill="#E52634" points="53.0302556 80.9218671 52.3171783 80.4979365 52.3238177 79.6633646 53.0541576 80.0992557"></polygon>
                    <polygon id="Fill-141" fill="#EDEBE2" points="56.3104111 82.8352693 53.0305211 80.9216013 53.0610626 80.1003188 56.3104111 82.01"></polygon>
                    <polygon id="Fill-143" fill="#E52634" points="59.5073078 84.693122 56.1796138 82.7528753 56.1796138 81.9329217 59.4980126 83.8851289"></polygon>
                    <polygon id="Fill-145" fill="#A48137" points="91.1925052 114.508867 114.215474 127.811517 113.101373 129.306571 90.0345846 116.055749"></polygon>
                    <polygon id="Fill-147" fill="#E0C898" points="159.752828 67.9454704 109.705957 135.214888 108.109832 134.292606 158.156703 67.0231888"></polygon>
                    <polygon id="Fill-149" fill="#A48137" points="159.810326 68.9501461 109.681125 136.165077 109.681125 135.193625 159.810326 67.9786938"></polygon>
                    <path d="M109.680594,136.171987 L108.109699,135.316153 C108.109699,135.316153 107.978238,135.084918 107.978238,134.804512 C107.978238,134.48291 108.109699,134.292872 108.109699,134.292872 L109.680594,135.200535 L109.680594,136.171987 Z" id="Fill-151" fill="#A48137"></path>
                    <polygon id="Fill-153" fill="#E0C898" points="133.091306 90.484094 86.1636505 100.512246 84.5675259 99.5899643 131.495182 89.5618124"></polygon>
                    <polyline id="Fill-155" fill="#A48137" points="120.931812 93.0737919 108.792235 75.3152186 109.426967 74.4646994 122.014043 92.8239519"></polyline>
                    <polyline id="Fill-157" fill="#E0C898" points="120.931812 93.0737919 108.792235 75.3351526 107.270473 74.370345 119.499018 92.2578251"></polyline>
                    <polygon id="Fill-159" fill="#A48137" points="108.792368 75.3154843 107.270605 74.3706108 107.84027 73.595841 109.4271 74.4649652"></polygon>
                    <polygon id="Fill-161" fill="#A48137" points="132.867159 91.5153485 86.1639161 101.572737 86.1639161 100.512246 132.867159 90.5213043"></polygon>
                    <polygon id="Fill-163" fill="#E0C898" points="135.180477 53.6835938 85.1336057 120.953011 83.5374812 120.030729 133.584352 52.7613122"></polygon>
                    <polygon id="Fill-165" fill="#A48137" points="135.180477 55.3499468 85.1083758 122.604746 85.1083758 120.931615 135.180477 53.6754873"></polygon>
                    <polygon id="Fill-167" fill="#E0C898" points="103.764443 97.3220019 103.559948 97.5133687 103.334206 97.2715024 103.538701 97.0801356"></polygon>
                    <path d="M85.108243,122.605144 L83.5373484,121.74931 C83.5373484,121.74931 83.4045593,120.823041 83.4045593,120.541307 C83.4045593,120.221033 83.5373484,120.030995 83.5373484,120.030995 L85.108243,120.938659 L85.108243,122.605144 Z" id="Fill-169" fill="#A48137"></path>
                    <polygon id="Fill-171" fill="#E0C898" points="90.8379584 113.329436 113.860927 126.632087 112.746826 128.12714 89.6800378 114.876318"></polygon>
                    <path d="M110.336174,113.386846 C138.359978,114.391522 152.556457,76.9327996 152.556457,71.6330024 L149.240714,69.725979 C149.240714,75.0257763 135.072121,112.445959 107.048316,111.441284" id="Fill-173" fill="#325D93"></path>
                    <polygon id="Fill-175" fill="#A48137" points="132.626412 58.6083653 155.64938 71.9110158 154.53528 73.4060689 131.468491 60.1552469"></polygon>
                    <polygon id="Fill-177" fill="#E0C898" points="132.271865 57.4289345 155.357244 70.7834135 154.243144 72.2784666 131.113944 58.9758161"></polygon>
                    <polygon id="Fill-179" fill="#A48137" points="147.876307 107.148288 120.183147 91.9784827 121.152507 91.5678414 148.330445 106.530333"></polygon>
                    <polygon id="Fill-181" fill="#E0C898" points="147.876307 107.148288 120.183147 91.9784827 121.156491 92.8010942 148.334429 107.763586"></polygon>
                    <polygon id="Fill-183" fill="#A48137" points="114.171122 115.324169 88.2241385 100.075956 88.3555996 100.966343 114.323829 116.198609"></polygon>
                    <polygon id="Fill-185" fill="#E0C898" points="159.003101 106.731534 112.075445 116.759686 110.47932 115.837404 157.406976 105.809252"></polygon>
                    <path d="M109.680727,136.677116 L108.109832,135.821281 C108.109832,135.821281 107.977043,135.085051 107.977043,134.803316 C107.977043,134.483043 108.109832,134.293005 108.109832,134.293005 L109.680727,135.200668 L109.680727,136.677116 Z" id="Fill-187" fill="#A48137"></path>
                    <polygon id="Fill-189" fill="#A48137" points="158.778953 107.762789 112.07571 117.820177 112.07571 116.759686 158.778953 106.768744"></polygon>
                    <polygon id="Fill-191" fill="#A48137" points="86.1633849 101.572073 84.5672604 100.591318 84.5672604 99.586642 86.1633849 100.511582"></polygon>
                    <polygon id="Fill-193" fill="#A48137" points="112.075179 117.819645 110.479055 116.857496 110.479055 115.851491 112.075179 116.759154"></polygon>
                    <polygon id="Fill-195" fill="#E0C898" points="114.223175 115.351014 88.285487 100.037683 89.9214483 99.6895016 116.102141 114.997517"></polygon>
                    <path d="M150.857288,108.395495 L149.675466,107.381517" id="Fill-197" fill="#E0C898"></path>
                    <polygon id="Fill-199" fill="#A48137" points="137.676513 90.9465638 136.15475 90.0016902 136.724415 89.2269205 138.311245 90.0960447"></polygon>
                    <polygon id="Fill-201" fill="#E0C898" points="114.702544 82.5906122 114.498049 82.781979 114.272307 82.5401126 114.476802 82.3487458"></polygon>
                    <polygon id="Fill-203" fill="#E0C898" points="126.090003 114.394047 125.885508 114.585414 125.659766 114.343547 125.864262 114.15218"></polygon>
                    <path d="M93.3207156,103.060747 C121.34452,104.065422 135.537015,66.81933 135.537015,61.5195327 L132.221272,59.6125094 C132.221272,64.9123066 118.056663,102.11986 90.0328583,101.115184" id="Fill-205" fill="#EDEBE2"></path>
                    <path d="M96.6391144,105.013087 C124.662919,106.017763 138.851431,68.7411045 138.851431,63.4413073 L135.537015,61.5342839 C135.537015,66.8340812 121.375062,104.0722 93.3512571,103.067524" id="Fill-207" fill="#3A6CB3"></path>
                    <path d="M116.569824,106.2684 C116.569824,106.2684 112.16521,99.8934933 110.162751,98.3094015 C107.797778,96.4395884 99.2793594,93.1159191 99.2793594,93.1159191 L115.985552,89.2726359 L129.762417,97.3459228 L116.569824,106.2684 Z" id="Fill-209" fill="#5C91CC"></path>
                    <path d="M89.4951954,100.796771 L90.2321747,101.232662 C118.1046,102.027366 132.220077,64.8982199 132.220077,59.613041 L131.679626,59.3033989 C131.593313,64.7812735 117.432687,101.798789 89.4951954,100.796771" id="Fill-211" fill="#3A6CB3"></path>
                    <path d="M99.9576459,106.965427 C127.98145,107.970103 142.180585,70.6482607 142.180585,65.3484635 L138.86617,63.4414402 C138.86617,68.7412374 124.693593,106.02454 96.6697886,105.019864" id="Fill-213" fill="#EDEBE2"></path>
                    <path d="M103.276045,108.917767 C131.299849,109.922443 145.502968,72.5554169 145.502968,67.2556197 L142.187225,65.3485964 C142.187225,70.6483936 128.011992,107.97688 99.9881874,106.972204" id="Fill-215" fill="#3A6CB3"></path>
                    <path d="M106.883392,111.024662 C134.907197,112.029338 149.106332,74.6157995 149.106332,69.3160022 L145.791917,67.4103079 C145.791917,72.7087761 131.61934,110.083775 103.595535,109.0791" id="Fill-217" fill="#EDEBE2"></path>
                    <path d="M147.090727,78.2204058 C147.090727,78.2204058 134.323058,105.660279 121.842214,107.51946 C109.362697,109.379971 118.298073,99.9737611 118.186531,99.5950143 C118.074988,99.2162675 135.846148,62.0445954 138.574964,62.3515796 C141.303779,62.6598928 144.047201,65.7310642 144.287549,65.7244195 C144.52657,65.7177748 148.806361,67.4095105 148.806361,67.4095105 L150.265713,68.4288045 L150.265713,70.0301725 C150.265713,70.0301725 150.278992,70.602944 149.815558,71.5159231 C149.353452,72.4302311 149.733229,72.432889 149.106465,72.9219375" id="Fill-219" fill-opacity="0.1" fill="#000000"></path>
                    <path d="M110.295939,112.822447 C138.319743,113.827123 152.516222,76.3684004 152.516222,71.0686032 L149.200479,69.1615799 C149.200479,74.4613771 135.031886,111.88156 107.008081,110.876885" id="Fill-221" fill="#3A6CB3"></path>
                    <polygon id="Fill-223" fill="#A48137" points="159.810326 69.4625839 109.681125 136.677515 109.681125 135.193093 159.810326 67.9781623"></polygon>
                    <polyline id="Fill-225" fill="#A48137" points="149.815957 108.704871 137.67638 90.946298 138.311112 90.0957789 150.898187 108.455031"></polyline>
                    <polyline id="Fill-227" fill="#E0C898" points="149.815957 108.704871 137.67638 90.9662321 136.154617 90.0014244 148.383162 107.888905"></polyline>
                    <polygon id="Fill-229" fill="#E0C898" points="140.905279 94.5065179 140.700784 94.6978847 140.475042 94.4560183 140.679538 94.2646515"></polygon>
                    <polygon id="Fill-231" fill="#EDEBE2" points="137.454357 60.4266157 135.551489 61.5256458 132.219812 59.6133068 134.133302 58.5209213"></polygon>
                    <polygon id="Fill-233" fill="#3A6CB3" points="140.771693 62.3425429 138.868826 63.441573 135.537148 61.529234 137.450639 60.4368485"></polygon>
                    <polygon id="Fill-235" fill="#EDEBE2" points="144.08903 64.2584701 142.186162 65.3575002 138.854485 63.4451612 140.767975 62.3527757"></polygon>
                    <polygon id="Fill-237" fill="#3A6CB3" points="147.406366 66.1743973 145.503499 67.2734274 142.171821 65.3610884 144.085312 64.2687029"></polygon>
                    <polygon id="Fill-239" fill="#EDEBE2" points="150.723703 68.0903245 148.820835 69.1893546 145.489158 67.2770156 147.402648 66.1846301"></polygon>
                    <polygon id="Fill-241" fill="#3A6CB3" points="154.041039 70.0062517 152.138172 71.1052818 148.806494 69.1929428 150.719984 68.1005573"></polygon>
                    <polygon id="Fill-243" fill="#3A6CB3" points="109.921739 113.630573 106.594045 111.690326 106.594045 110.870373 109.912444 112.82258"></polygon>
                    <polygon id="Fill-245" fill="#EDEBE2" points="106.633616 111.698034 103.284676 109.745827 103.284676 108.925873 106.624321 110.890041"></polygon>
                    <polygon id="Fill-247" fill="#3A6CB3" points="103.28534 109.745694 99.9576459 107.805447 99.9881874 106.972204 103.276045 108.917767"></polygon>
                    <polygon id="Fill-249" fill="#EDEBE2" points="99.9581771 107.804783 96.6371225 105.827326 96.6371225 105.008701 99.983407 106.984829"></polygon>
                    <polygon id="Fill-251" fill="#3A6CB3" points="90.2013676 102.054742 89.4882904 101.630811 89.4949298 100.79624 90.2252697 101.232131"></polygon>
                    <polygon id="Fill-253" fill="#EDEBE2" points="93.4815232 103.968277 90.2016332 102.054609 90.2321747 101.233327 93.4815232 103.143008"></polygon>
                    <polygon id="Fill-255" fill="#3A6CB3" points="96.6784199 105.825997 93.3507259 103.88575 93.3507259 103.065797 96.6691247 105.018004"></polygon>
                    <path d="M109.699052,156.744849 C109.622034,156.54285 109.562279,156.347497 109.452064,156.132209 C100.061221,137.687905 74.2536664,149.532712 62.7873306,137.363644 C51.3209947,125.194576 62.076909,120.826363 44.4611116,118.641592 C26.8453141,116.45815 24.2864688,109.982245 24.0076117,105.809385 C23.8230349,103.054501 20.0983016,98.120161 15.442717,96.017784 L6.64411344,101.103623 C-1.58880865,105.887793 -1.58880865,117.848218 6.64411344,122.632388 L76.6478533,161.843977 C82.0019084,164.892556 88.1872231,165.814838 94.0485325,164.576269 C94.1215665,164.560322 94.1932726,164.543046 94.2663065,164.52577 C94.539852,164.464639 94.8133975,164.398192 95.0856151,164.327758 C97.1544687,163.761631 99.1688789,162.920415 101.077058,161.801451 L109.699052,156.744849 Z" id="Fill-257" fill="#BEDBE4"></path>
                    <path d="M98.3102648,150.962116 C89.6922544,142.337321 72.8678797,155.707747 60.0909158,142.148612 C47.3152797,128.589477 59.3008208,123.721584 39.6719411,121.286973 C20.0430614,118.853691 17.1920801,111.638896 16.8813537,106.988949 C16.7658272,105.265319 14.1153575,101.707757 10.8978784,98.502363 L6.24229373,101.193459 C-1.99062836,105.977629 -1.99062836,117.938054 6.24229373,122.722224 L76.2460335,161.933813 C83.9477994,166.319302 93.3758231,166.319302 101.077589,161.800919 L101.606089,161.491277 C101.774731,157.584205 100.977997,153.631949 98.3102648,150.962116" id="Fill-259" fill="#8ACDDC"></path>
                    <path d="M47.3958827,132.844863 C47.3958827,133.644883 46.9165142,134.293403 46.3242749,134.293403 C45.7333636,134.293403 45.2526672,133.644883 45.2526672,132.844863 C45.2526672,132.044843 45.7333636,131.396323 46.3242749,131.396323 C46.9165142,131.396323 47.3958827,132.044843 47.3958827,132.844863" id="Fill-265" fill="#BEDBE4"></path>
                    <path d="M41.6884759,127.086051 C41.6884759,126.767107 41.4972596,126.507964 41.2608951,126.507964 C41.0245305,126.507964 40.8333143,126.767107 40.8333143,127.086051 C40.8333143,127.404996 41.0245305,127.664138 41.2608951,127.664138 C41.4972596,127.664138 41.6884759,127.404996 41.6884759,127.086051" id="Fill-267" fill="#BEDBE4"></path>
                    <path d="M88.2343632,149.925812 C88.2343632,150.725831 87.7549947,151.374352 87.1627555,151.374352 C86.5718441,151.374352 86.0911477,150.725831 86.0911477,149.925812 C86.0911477,149.125792 86.5718441,148.477271 87.1627555,148.477271 C87.7549947,148.477271 88.2343632,149.125792 88.2343632,149.925812" id="Fill-269" fill="#BEDBE4"></path>
                    <path d="M80.1030248,152.822228 C80.1030248,153.294 79.820184,153.675405 79.4722767,153.675405 C79.1230415,153.675405 78.8402007,153.294 78.8402007,152.822228 C78.8402007,152.350456 79.1230415,151.969051 79.4722767,151.969051 C79.820184,151.969051 80.1030248,152.350456 80.1030248,152.822228" id="Fill-271" fill="#BEDBE4"></path>
                    <path d="M14.7912538,108.358683 C14.7912538,109.158703 14.3118853,109.807224 13.719646,109.807224 C13.1287347,109.807224 12.6480383,109.158703 12.6480383,108.358683 C12.6480383,107.558664 13.1287347,106.910143 13.719646,106.910143 C14.3118853,106.910143 14.7912538,107.558664 14.7912538,108.358683" id="Fill-273" fill="#BEDBE4"></path>
                    <path d="M16.4823226,113.40678 C16.4823226,113.86925 16.2047934,114.24401 15.8621976,114.24401 C15.5209297,114.24401 15.2434006,113.86925 15.2434006,113.40678 C15.2434006,112.94431 15.5209297,112.56955 15.8621976,112.56955 C16.2047934,112.56955 16.4823226,112.94431 16.4823226,113.40678" id="Fill-275" fill="#BEDBE4"></path>
                    <path d="M142.959393,67.8578935 C146.421204,65.6478728 145.632437,69.8685739 145.632437,69.8685739 C145.632437,69.8685739 141.995344,80.7007322 138.310448,88.6132178 C136.357121,92.809998 133.654863,96.1854958 133.091838,96.6865047 C132.855473,96.8964766 126.610403,103.199621 126.061984,103.311251 C125.05146,103.514578 129.619404,97.4253932 129.619404,97.4253932 C129.619404,97.4253932 132.955065,71.1124581 135.536484,70.5038053 C138.117904,69.8938237 142.959393,67.8578935 142.959393,67.8578935" id="Fill-281" fill="#ECC6AD"></path>
                    <path d="M126.876778,66.9138173 C126.876778,66.9138173 121.373999,65.3961723 119.387475,64.2971421 C117.278784,63.1303362 114.937713,61.0239725 114.937713,61.0239725 L115.823416,60.0937172 L124.809252,64.5164166 L126.99496,66.9284356" id="Fill-283" fill="#ECC6AD"></path>
                    <path d="M116.354307,55.355927 C116.354307,55.355927 113.548474,55.9499615 113.754297,58.3752699 C113.932234,60.4470813 115.434079,61.5899664 115.434079,61.5899664 C115.434079,61.5899664 119.473522,62.5813527 120.736346,63.1421637 C122.382931,63.8730786 126.876513,66.9136844 126.876513,66.9136844 C126.876513,66.9136844 131.469686,64.2411939 129.410128,61.4265072 L122.369652,58.2995205 L116.354307,55.355927" id="Fill-285" fill="#FAD1B2"></path>
                    <path d="M133.896805,52.4945947 L116.354041,55.3557941 C116.354041,55.3557941 115.690096,56.1225903 115.585193,56.8003477 C115.42319,57.8329311 116.432387,58.6329506 117.584996,58.5983983 C119.495831,58.5399251 134.212843,56.5013371 134.212843,56.5013371" id="Fill-287" fill="#F8CDAF"></path>
                    <path d="M128.747378,57.1700577 C128.747378,57.1700577 132.36588,54.6317898 129.500292,54.8058804 C126.636032,54.979971 122.268599,58.037853 122.268599,58.037853 L128.747378,57.1700577 Z" id="Fill-289" fill="#ECC6AD"></path>
                    <path d="M39.4819199,23.0661018 C39.4819199,23.0661018 34.3629014,25.5910804 32.1479798,26.0907604 C29.7962855,26.6210059 26.6491846,26.6037297 26.6491846,26.6037297 L26.693005,25.3199774 L36.3454422,22.6488158 L39.5801839,22.998326" id="Fill-291" fill="#ECC6AD"></path>
                    <path d="M23.9446697,21.4257959 C23.9446697,21.4257959 22.2423139,23.7368158 24.0070806,25.4112754 C25.5142365,26.8412106 27.3958575,26.6976855 27.3958575,26.6976855 C27.3958575,26.6976855 31.0741147,24.7507941 32.3900543,24.3308503 C34.105689,23.7819997 39.4823183,23.0657031 39.4823183,23.0657031 C39.4823183,23.0657031 41.1395259,18.013088 37.7321584,17.2808442 L30.3942346,19.6250875 L23.9446697,21.4257959" id="Fill-293" fill="#FAD1B2"></path>
                    <path d="M34.0525734,14.7623774 C34.0525734,14.7623774 28.4063823,21.7153711 27.0174087,23.0296889 C26.1781818,23.8230638 24.8941115,23.8948264 24.3284301,23.0177285 C23.9579486,22.4396413 23.9446697,21.425663 23.9446697,21.425663 L33.2505274,10.8911865 C33.2505274,10.8911865 34.0273435,10.3915065 37.8795543,9.52238227" id="Fill-295" fill="#F8CDAF"></path>
                    <path d="M40.6118221,10.9027482 C40.6118221,10.9027482 43.8093828,7.84885302 41.002222,8.45219001 C38.1950611,9.05552701 34.3362108,12.7340222 34.3362108,12.7340222 L40.6118221,10.9027482 Z" id="Fill-297" fill="#ECC6AD"></path>
                    <path d="M135.004531,56.3207347 C135.004531,56.3207347 138.551327,53.6827965 135.692379,53.9366233 C132.832102,54.1904501 128.552311,57.3679363 128.552311,57.3679363 L135.004531,56.3207347 Z" id="Fill-299" fill="#ECC6AD"></path>
                    <path d="M129.619536,97.4251274 L115.797522,89.4913788 C115.797522,89.4913788 117.943394,88.6594648 120.182217,82.8347378 C121.839425,78.5249979 123.54842,69.3274311 124.476616,66.9419908 C126.062117,62.8727884 130.968673,59.8773664 130.968673,59.8773664 L144.789359,67.2728959 C144.789359,67.2728959 139.426009,70.5035396 138.068905,73.405936 C136.549798,76.6538559 135.660111,82.8533429 133.898,88.1411797 C132.212907,93.2017684 129.619536,97.4251274 129.619536,97.4251274" id="Fill-301" fill="#FAD1B2"></path>
                    <path d="M138.957927,72.0416502 C138.957927,72.0416502 144.289408,74.0789093 146.541511,74.3712752 C148.931714,74.6795884 152.064208,74.3712752 152.064208,74.3712752 L151.900878,73.0968255 L142.041289,71.3346562 L138.854352,71.983177" id="Fill-303" fill="#ECC6AD"></path>
                    <path d="M154.275545,68.9631697 C154.275545,68.9631697 156.185051,71.1054147 154.583615,72.9366887 C153.215888,74.5008465 151.328955,74.532741 151.328955,74.532741 C151.328955,74.532741 147.48604,72.9380176 146.136903,72.6416649 C144.377448,72.2549445 138.958326,72.0423147 138.958326,72.0423147 C138.958326,72.0423147 141.616763,68.3212936 144.941801,67.2740919 L147.686551,67.771114 L154.275545,68.9631697" id="Fill-305" fill="#FAD1B2"></path>
                    <polygon id="Fill-307" fill="#E0C898" points="159.752828 67.9454704 109.705957 135.214888 108.109832 134.292606 158.156703 67.0231888"></polygon>
                    <path d="M152.702525,78.8956382 L150.029481,74.0649555" id="Fill-309" fill="#FAD1B2"></path>
                    <path d="M133.197139,75.6059898 C133.197139,75.8252642 133.019202,76.0020127 132.801428,76.0020127 C132.582326,76.0020127 132.404389,75.8252642 132.404389,75.6059898 C132.404389,75.3867153 132.582326,75.2099668 132.801428,75.2099668 C133.019202,75.2099668 133.197139,75.3867153 133.197139,75.6059898" id="Fill-311" fill="#CDBFA2"></path>
                    <path d="M125.395782,71.1052818 C125.395782,71.3325299 125.211205,71.5159231 124.985463,71.5159231 C124.758394,71.5159231 124.573817,71.3325299 124.573817,71.1052818 C124.573817,70.8780338 124.758394,70.6946406 124.985463,70.6946406 C125.211205,70.6946406 125.395782,70.8780338 125.395782,71.1052818" id="Fill-313" fill="#CDBFA2"></path>
                    <path d="M124.501315,87.1335803 C124.501315,87.2412241 124.413674,87.3289339 124.306115,87.3289339 C124.198555,87.3289339 124.110915,87.2412241 124.110915,87.1335803 C124.110915,87.0259365 124.198555,86.9382267 124.306115,86.9382267 C124.413674,86.9382267 124.501315,87.0259365 124.501315,87.1335803" id="Fill-315" fill="#CDBFA2"></path>
                    <path d="M138.317087,61.9587461 C138.317087,61.9587461 138.245381,62.7826865 138.331694,63.416589 C138.418007,64.0518205 139.696766,65.4113222 135.393072,67.6226718 C132.584583,69.0645675 131.349645,68.1329833 131.349645,68.1329833 C131.349645,68.1329833 129.00459,65.6398992 130.432073,62.0903108 C131.859555,58.5420514 138.317087,61.9587461 138.317087,61.9587461" id="Fill-317" fill="#ECC6AD"></path>
                    <path d="M141.831881,56.2618628 L154.275545,68.9625052 C154.275545,68.9625052 154.356546,69.9738256 154.040508,70.5838073 C153.559811,71.5100758 152.274413,71.5579175 151.366136,70.8456077 C149.860308,69.6668414 139.206641,59.3037976 139.206641,59.3037976" id="Fill-319" fill="#F8CDAF"></path>
                    <path d="M138.675485,58.6888988 C138.675485,58.6888988 137.376808,54.461553 139.531975,56.3606027 C141.685813,58.2596525 143.25538,63.3561225 143.25538,63.3561225 L138.675485,58.6888988 Z" id="Fill-321" fill="#ECC6AD"></path>
                    <path d="M129.596564,62.5753725 C127.235574,56.3107676 129.854175,50.290687 129.854175,50.290687 L133.102195,50.6282368 L135.800469,52.6535355 L141.831748,53.2967405 C141.831748,53.2967405 140.482611,57.5081391 140.397626,58.5633144 C140.313969,59.6184896 140.525104,58.9008641 139.187918,60.2935892 C138.619581,60.8849657 138.381888,61.5361444 138.29292,62.0903108 C137.127032,62.9939874 135.590662,64.0026499 134.38361,64.1501618 C132.644073,64.3627916 131.070522,64.5661188 129.596564,62.5753725" id="Fill-323" fill="#FAD1B2"></path>
                    <path d="M140.637443,58.9431243 C141.601492,59.3085817 143.186994,52.8924782 142.09414,52.127011 C141.207109,51.5050689 138.137025,53.562262 138.074615,54.1137705 C138.060008,54.2400194 138.195453,54.2107828 138.575229,54.2028092 C140.610886,54.1602832 140.746331,55.4639695 140.746331,55.4639695 C140.746331,55.4639695 138.524769,58.1417758 140.637443,58.9431243" id="Fill-325" fill="#996633"></path>
                    <path d="M129.854175,50.2902884 L133.827223,52.39931 C133.827223,52.39931 134.856339,48.9533786 133.090244,48.2277795 C131.322822,47.5021804 129.790436,47.5912191 129.854175,50.2902884" id="Fill-327" fill="#CEAA15"></path>
                    <path d="M116.569824,106.2684 C116.569824,106.2684 109.769696,102.096869 107.765909,100.512778 C105.400935,98.6416355 99.2793594,93.1159191 99.2793594,93.1159191 L115.985552,89.2726359 L129.762417,97.3459228 L116.569824,106.2684 Z" id="Fill-329" fill="#887A9E"></path>
                    <path d="M123.218838,93.6680921 C119.398496,95.5817601 103.165033,103.811861 102.037654,105.865068 C101.181164,107.426568 100.388414,133.270388 100.388414,133.270388 C100.388414,133.270388 100.588925,135.176083 102.161148,135.57875 C102.250116,135.561474 102.335101,135.550843 102.429382,135.525593 C105.442365,134.724244 105.148902,133.799305 105.148902,133.799305 L110.027572,110.258531 L129.410792,97.2827983 L123.218838,93.6680921 Z" id="Fill-331" fill="#ECC6AD"></path>
                    <path d="M122.314146,92.8295334 C121.022108,93.4727385 100.653593,103.629797 99.4266224,105.865068 C98.5688051,107.426568 97.7760543,133.270388 97.7760543,133.270388 C97.7760543,133.270388 98.0881086,136.326941 101.101093,135.525593 C104.115404,134.724244 103.820613,133.799305 103.820613,133.799305 L108.700611,110.258531 L129.098339,96.789763" id="Fill-333" fill="#FAD1B2"></path>
                    <path d="M115.906941,89.2909752 C114.614903,89.9341803 89.0410568,94.9721771 87.8127579,97.2074476 C86.9562685,98.7702765 86.1635177,124.612768 86.1635177,124.612768 C86.1635177,124.612768 86.475572,127.669321 89.4885559,126.867973 C92.5015399,126.066624 92.208076,125.141685 92.208076,125.141685 L97.0867463,101.60091 L122.582247,93.2339287" id="Fill-335" fill="#FAD1B2"></path>
                    <path d="M123.218838,94.0335495 L121.495236,93.4421729 L97.0872775,101.600512 L92.2072793,125.141286 C92.2072793,125.141286 92.502071,126.067555 89.4890871,126.868903 C88.3882657,127.161269 87.6499585,126.936679 87.1546553,126.536669 C87.5543504,127.312768 88.3909215,128.128734 90.1251467,127.668923 C93.1394585,126.867574 92.8446668,125.941306 92.8446668,125.941306 L97.724665,102.400531 L123.218838,94.0335495 Z" id="Fill-337" fill="#ECC6AD"></path>
                    <path d="M83.9035806,133.288993 C90.833842,130.091573 93.2598982,127.251637 92.995648,125.210391 C92.995648,125.210391 93.1350765,125.791136 92.5534604,126.144633 C91.9718443,126.496801 85.9219744,127.379215 85.9219744,127.379215 L83.9035806,128.781242 L82.8200218,129.707511" id="Fill-339" fill="#EDEBE2"></path>
                    <path d="M86.0296664,123.910425 C86.0296664,123.910425 79.8802047,127.897234 78.2402597,128.731806 C76.6016427,129.566378 76.9734521,135.961218 83.9037134,132.763798 C90.8339748,129.566378 92.4712639,127.182266 92.2070137,125.142349" id="Fill-341" fill="#FAD1B2"></path>
                    <path d="M129.761753,97.3461886 L133.898133,95.4750465 C133.324484,97.2651235 126.423436,103.24002 125.151317,103.968277 C122.249876,105.630776 117.432289,108.408253 116.509405,107.520523 C115.866706,106.902568 115.501536,106.268666 115.501536,106.268666" id="Fill-343" fill="#9583AC"></path>
                    <path d="M116.569824,106.2684 C116.569824,106.2684 112.16521,99.8934933 110.162751,98.3094015 C107.797778,96.4395884 99.2793594,93.1159191 99.2793594,93.1159191 L111.426903,90.3211665 L115.985552,89.2726359 L129.762417,97.3459228 C129.762417,97.3459228 126.062914,100.838367 124.677924,101.809819 C122.784352,103.138755 116.569824,106.2684 116.569824,106.2684" id="Fill-345" fill="#A991C4"></path>
                    <path d="M115.180983,104.319781 L127.86765,96.2371914 L126.568973,95.475711 L114.416118,103.283211 C114.688335,103.647339 114.944618,103.99552 115.180983,104.319781" id="Fill-347" fill="#EDEBE2"></path>
                    <path d="M106.514903,96.2406466 L116.748956,89.720886 L115.985419,89.2730346 L114.413196,89.6345052 L105.135224,95.5961126 C105.601314,95.8074134 106.064748,96.0227011 106.514903,96.2406466" id="Fill-349" fill="#EDEBE2"></path>
                    <path d="M108.863941,97.4640652 L118.973173,91.0240408 L117.679807,90.2665472 L107.56792,96.7637159 C108.035338,97.0015954 108.469558,97.2368171 108.863941,97.4640652" id="Fill-351" fill="#EDEBE2"></path>
                    <path d="M119.902431,91.568373 L109.806478,98.0549102 C109.9313,98.141291 110.060105,98.2276719 110.162353,98.3100659 C110.362864,98.4682093 110.592589,98.6848259 110.834266,98.9293502 L121.197124,92.3271955 L119.902431,91.568373 Z" id="Fill-353" fill="#EDEBE2"></path>
                    <path d="M112.377142,100.665871 L123.41988,93.6304832 L122.125187,92.8703317 L111.533931,99.6744846 C111.806149,99.9814689 112.090317,100.316361 112.377142,100.665871" id="Fill-355" fill="#EDEBE2"></path>
                    <path d="M113.806616,102.475218 L125.644761,94.9335051 L124.347412,94.1733536 L113.013865,101.454595 C113.282099,101.792144 113.546349,102.13501 113.806616,102.475218" id="Fill-357" fill="#EDEBE2"></path>
                    <path d="M104.034536,95.1008181 L111.596873,90.2820958 L111.426903,90.3219638 L107.793794,91.1578647 L102.615021,94.4855207 C103.069159,94.6795454 103.544544,94.8842015 104.034536,95.1008181" id="Fill-359" fill="#EDEBE2"></path>
                    <polygon id="Fill-361" fill="#9586A9" points="129.761753 97.3461886 115.984888 89.2729017 117.057823 88.3067651 130.448273 96.0172525"></polygon>
                    <path d="M130.44814,96.0172525 L135.083806,94.1726891 C135.083806,94.1726891 133.860819,95.8697405 133.672259,96.046489 C133.48237,96.2245665 129.761621,97.3461886 129.761621,97.3461886" id="Fill-363" fill="#9586A9"></path>
                    <polygon id="Fill-365" fill="#A48137" points="137.676513 90.9465638 136.15475 90.0016902 136.724415 89.2269205 138.311245 90.0960447"></polygon>
                    <path d="M133.46046,55.9862414 L136.584987,57.098561 C136.584987,57.098561 137.144029,59.7590911 134.595807,59.4866592 C132.047584,59.2142273 133.46046,55.9862414 133.46046,55.9862414" id="Fill-367" fill="#444443"></path>
                    <polygon id="Fill-369" fill="#444443" points="133.296466 57.513189 131.790638 56.889918 131.790638 56.4168167 133.296466 56.994904"></polygon>
                    <path d="M136.375844,57.9902771 L140.38209,55.9982019 C140.38209,55.9982019 140.729997,56.306515 140.567995,56.4048563 C140.405992,56.5031976 136.375844,58.5723511 136.375844,58.5723511" id="Fill-371" fill="#444443"></path>
                    <path d="M128.753486,54.2836085 L131.827553,55.520848 C131.827553,55.520848 132.386595,58.1813781 129.838373,57.9089462 C127.290151,57.6365143 128.753486,54.2836085 128.753486,54.2836085" id="Fill-373" fill="#444443"></path>
                    <path d="M142.831517,54.7224232 L138.35387,54.2719139 C138.35387,54.2719139 133.102062,54.7450151 131.211146,55.2181164 C129.020126,55.3177866 127.178342,54.2214143 127.178342,54.2214143 C127.178342,54.2214143 125.586201,53.0758713 126.457297,52.4526003 C127.328394,51.8306582 129.717269,50.6851153 129.717269,50.6851153 C129.717269,50.6851153 129.295,47.1222376 133.476528,45.677684 C137.656727,44.2331304 141.913945,44.9055721 143.431724,50.1615144 C143.680039,52.8021105 142.831517,54.7224232 142.831517,54.7224232" id="Fill-375" fill="#61B346"></path>
                    <path d="M130.811185,51.0141599 L134.610281,53.0314849 C134.610281,53.0314849 135.595575,49.7357233 133.905171,49.0420187 C132.216094,48.348314 130.750102,48.4333659 130.811185,51.0141599" id="Fill-377" fill="#FAFAFA"></path>
                    <path d="M86.0296664,124.43602 C86.0296664,124.43602 79.8802047,128.422828 78.2402597,129.2574 C76.6016427,130.091972 76.9734521,136.486812 83.9037134,133.289392" id="Fill-379" fill="#EDEBE2"></path>
                    <path d="M86.0296664,123.910425 C86.0296664,123.910425 79.8802047,127.897234 78.2402597,128.731806 C76.6016427,129.566378 76.9734521,135.961218 83.9037134,132.763798 C90.8339748,129.566378 92.4712639,127.182266 92.2070137,125.142349 L92.5535932,123.474534" id="Fill-381" fill="#FAD1B2"></path>
                    <path d="M80.131176,127.471576 C79.1047166,128.10282 78.735563,128.478909 78.2402597,128.731407 C76.6016427,129.565979 76.9721242,135.960819 83.9037134,132.763399 C84.3073922,132.577348 86.5262975,131.437121 86.8954511,131.255057 L80.131176,127.471576 Z" id="Fill-383" fill="#EDEBE2"></path>
                    <path d="M42.7081631,47.3981247 C41.5263404,48.2287098 42.940544,72.8977509 42.0614803,75.2938227 C41.4493227,76.9669532 44.5419801,102.635354 44.5419801,102.635354 C44.5419801,102.635354 45.308173,105.610842 48.1671216,104.365629 C51.0260702,103.121745 50.5971615,102.249963 50.5971615,102.249963 L51.8891991,78.2427319 L49.898691,50.2925475" id="Fill-385" fill="#FAD1B2"></path>
                    <path d="M51.2499526,51.6604215 L49.4639396,51.3016087 L51.9789645,78.9341774 L50.2354441,102.912172 C50.2354441,102.912172 50.6484181,103.790598 47.7668954,104.981325 C46.7138781,105.417216 45.9543246,105.290967 45.4098894,104.960062 C45.9078484,105.677688 46.8453392,106.376708 48.5038747,105.690977 C51.3853974,104.50025 50.9724234,103.621824 50.9724234,103.621824 L52.7159438,79.6425003 L51.2499526,51.6604215 Z" id="Fill-387" fill="#ECC6AD"></path>
                    <path d="M42.2817774,111.311712 C49.2120388,108.114292 51.638095,105.274356 51.3738448,103.23311 C51.3738448,103.23311 51.5132733,103.813855 50.9316572,104.167352 C50.3500411,104.51952 44.3001712,105.401934 44.3001712,105.401934 L42.2817774,106.803961 L41.1982186,107.73023" id="Fill-389" fill="#EDEBE2"></path>
                    <path d="M44.4077303,102.458739 C44.4077303,102.458739 38.2582687,106.445547 36.6183237,107.280119 C34.9797067,108.114691 35.351516,114.509531 42.2817774,111.312111" id="Fill-391" fill="#EDEBE2"></path>
                    <path d="M44.4077303,101.933144 C44.4077303,101.933144 38.2582687,105.919953 36.6183237,106.754525 C34.9797067,107.589097 35.351516,113.983937 42.2817774,110.786517 C49.2120388,107.589097 50.8493279,105.204985 50.5850777,103.165068 L50.9316572,101.497253" id="Fill-393" fill="#FAD1B2"></path>
                    <path d="M38.5093728,105.494295 C37.4829133,106.125539 37.1137597,106.501628 36.6184565,106.754126 C34.9798395,107.588698 35.3503209,113.983538 42.2819102,110.786118 C42.685589,110.600067 44.9044942,109.45984 45.2736478,109.277776 L38.5093728,105.494295 Z" id="Fill-395" fill="#EDEBE2"></path>
                    <path d="M54.2916189,52.5173195 C53.1097962,53.3479046 54.5239998,78.0169457 53.6449361,80.4130175 C53.0327786,82.0861481 56.1254359,107.754549 56.1254359,107.754549 C56.1254359,107.754549 56.8916288,110.730037 59.7505774,109.484824 C62.609526,108.24094 62.1806173,107.369158 62.1806173,107.369158 L64.9107605,81.0814724 L61.4821468,55.4117424" id="Fill-397" fill="#FAD1B2"></path>
                    <path d="M62.2320067,56.1077062 L64.4602072,76.8856224 C62.2200557,82.8591902 61.2360887,89.2301099 61.5667335,95.6010297 L62.1802189,107.370088 C62.1802189,107.370088 62.6091276,108.240541 59.750179,109.485754 C58.706457,109.94025 57.9442477,109.82862 57.3931731,109.508346 C57.9057389,110.21534 58.8551807,110.897084 60.5004373,110.180788 C63.3593858,108.935575 62.9304772,108.065121 62.9304772,108.065121 L65.2131212,83.9077208 L62.2320067,56.1077062 Z" id="Fill-399" fill="#ECC6AD"></path>
                    <path d="M53.759002,115.507031 C60.6892633,112.309611 63.1153195,109.469674 62.8510693,107.428428 C62.8510693,107.428428 62.9904978,108.009173 62.4088817,108.36267 C61.8272656,108.714838 55.7773958,109.597252 55.7773958,109.597252 L53.759002,110.99928 L52.6754432,111.925548" id="Fill-401" fill="#EDEBE2"></path>
                    <path d="M55.8850877,106.654057 C55.8850877,106.654057 49.735626,110.640865 48.0956811,111.475437 C46.457064,112.310009 46.8288734,118.70485 53.7591347,115.50743" id="Fill-403" fill="#EDEBE2"></path>
                    <path d="M55.8850877,106.128463 C55.8850877,106.128463 49.735626,110.115271 48.0956811,110.949843 C46.457064,111.784415 46.8288734,118.179256 53.7591347,114.981835 C60.6893961,111.784415 62.3266853,109.400304 62.062435,107.360387 L62.4090145,105.692572" id="Fill-405" fill="#FAD1B2"></path>
                    <path d="M49.9865974,109.689613 C48.9601379,110.320858 48.5909843,110.696947 48.0956811,110.949444 C46.457064,111.784016 46.8275455,118.178857 53.7591347,114.981437 C54.1628135,114.795386 56.3817188,113.655158 56.7508724,113.473094 L49.9865974,109.689613 Z" id="Fill-407" fill="#EDEBE2"></path>
                    <path d="M95.6527572,141.669796 C102.583019,138.472376 105.517657,135.329442 105.254735,133.289525 C105.254735,133.289525 104.884253,134.171939 104.302637,134.525436 C103.721021,134.877604 97.671151,135.760017 97.671151,135.760017 L95.6527572,137.162045 L94.5691984,138.088313" id="Fill-409" fill="#EDEBE2"></path>
                    <path d="M97.7788429,132.81669 C97.7788429,132.81669 91.6293813,136.803498 89.9894363,137.63807 C88.3508192,138.472642 88.7226286,144.867482 95.65289,141.670062" id="Fill-411" fill="#EDEBE2"></path>
                    <path d="M97.7788429,132.291228 C97.7788429,132.291228 91.6293813,136.278037 89.9894363,137.112608 C88.3508192,137.94718 88.7226286,144.342021 95.65289,141.144601 C102.583151,137.94718 104.220441,135.563069 103.95619,133.523152 L104.30277,131.855337" id="Fill-413" fill="#FAD1B2"></path>
                    <path d="M91.8803526,135.852378 C90.8538931,136.483623 90.4847395,136.859712 89.9894363,137.11221 C88.3508192,137.946782 88.7213007,144.341622 95.65289,141.144202 C96.0565687,140.958151 98.275474,139.817924 98.6446276,139.635859 L91.8803526,135.852378 Z" id="Fill-415" fill="#EDEBE2"></path>
                    <path d="M62.1079817,77.7002602 C62.1079817,77.7002602 64.9177983,77.0783181 64.6840896,76.5201649 C64.4517087,75.9633407 65.2763288,56.5954258 64.0400626,56.049233 C63.536792,55.8273007 62.4784632,53.1335472 58.8227802,51.1906426 C53.4859876,48.3546929 45.00475,46.0343705 44.4191502,46.3519862 C43.4338553,46.8888764 41.8536655,46.7426934 41.8536655,46.7426934" id="Fill-417" fill="#7FA3A5"></path>
                    <path d="M62.1079817,77.7002602 C62.1079817,77.7002602 52.2098847,77.3387896 49.1265226,76.2650092 C47.0510295,75.5420679 41.6783839,71.5951277 41.6783839,71.5951277 L41.8390587,48.9380959 L64.0400626,56.049233 C64.0400626,56.049233 61.3617071,63.8527459 61.3444446,69.424975 C61.3351493,72.2383328 62.1079817,77.7002602 62.1079817,77.7002602" id="Fill-419" fill="#91BCC1"></path>
                    <path d="M45.662587,74.3431018 C46.051659,74.5942707 46.4394031,74.837466 46.8178519,75.067372 L47.2082517,50.9139581 L46.0476753,50.4873696 L45.662587,74.3431018 Z" id="Fill-421" fill="#EDEBE2"></path>
                    <path d="M47.7748627,75.6230002 C48.2104108,75.8622087 48.6021386,76.0549044 48.9327833,76.187798 L49.3284948,51.6941765 L48.1679183,51.267588 L47.7748627,75.6230002 Z" id="Fill-423" fill="#EDEBE2"></path>
                    <path d="M51.4491362,52.474262 L50.2885597,52.0476735 L49.8941762,76.4841508 C50.2407556,76.5692027 50.6364671,76.6476099 51.0574084,76.7233593 L51.4491362,52.474262 Z" id="Fill-425" fill="#EDEBE2"></path>
                    <path d="M52.0209259,76.8780474 C52.3967189,76.9325338 52.784463,76.9856912 53.185486,77.0335329 L53.5692464,53.254879 L52.4086699,52.8269616 L52.0209259,76.8780474 Z" id="Fill-427" fill="#EDEBE2"></path>
                    <path d="M54.1496674,77.1437018 C54.5360836,77.1848988 54.9251555,77.2234379 55.3155554,77.2593192 L55.6900206,54.0348316 L54.5294441,53.6069142 L54.1496674,77.1437018 Z" id="Fill-429" fill="#EDEBE2"></path>
                    <path d="M56.2794712,77.3442382 C56.6765105,77.3774616 57.0642546,77.4080271 57.4453592,77.4359348 L57.8105291,54.8147843 L56.6499527,54.3881958 L56.2794712,77.3442382 Z" id="Fill-431" fill="#EDEBE2"></path>
                    <path d="M43.5523032,72.9265888 C43.9108337,73.1750998 44.3012335,73.442216 44.7075681,73.7146479 L45.0873448,50.1340055 L43.9267684,49.706088 L43.5523032,72.9265888 Z" id="Fill-433" fill="#EDEBE2"></path>
                    <path d="M63.355535,58.2049003 C63.355535,58.2049003 51.9702004,56.048037 49.3330096,55.0021642 C47.3438294,54.2127762 41.6843594,51.1495784 41.6843594,51.1495784 L41.8490178,48.78673 C41.8490178,48.78673 48.0927597,51.8525857 50.2598773,52.6738682 C52.7390491,53.613426 63.6489988,55.6360668 63.6489988,55.6360668 L64.0393987,56.0493659 L63.355535,58.2049003 Z" id="Fill-435" fill="#82A6A8"></path>
                    <path d="M41.7943087,49.3904657 C41.7943087,49.3904657 44.0158698,39.461984 42.8367029,33.3342596 C41.8939005,28.4291564 43.8870644,24.3426778 39.5793871,22.9977945 C35.4124662,21.696766 46.1551017,14.3012365 46.1551017,14.3012365 L55.0479854,17.2940007 L58.2136768,19.0229466 L60.882737,19.2355763 C60.882737,19.2355763 56.4196965,24.6536489 55.5127471,27.7274781 C54.4995666,31.1654358 54.421221,36.3602471 55.7544232,41.3410997 C57.1341016,46.4947139 60.4392215,55.7813195 60.4392215,55.7813195 C60.4392215,55.7813195 54.7784236,55.750754 48.567879,53.8583489 C42.1037073,51.8888656 41.7943087,49.3904657 41.7943087,49.3904657" id="Fill-437" fill="#FAD1B2"></path>
                    <path d="M58.4651792,19.4669441 C63.1526333,17.3406463 64.3530464,23.6982767 64.3530464,23.6982767 C64.3530464,23.6982767 64.3570301,35.0154967 64.7129048,43.7359754 C64.9120884,48.6012106 64.334456,52.5122695 64.334456,52.5122695 C64.1326166,52.7554649 64.0396642,55.5674937 63.5138195,55.7601894 C62.5457872,56.1136864 60.2246344,55.7216503 60.2246344,55.7216503 C60.2246344,55.7216503 58.0455658,49.3281386 56.0909107,42.2183304 C53.7166422,33.5815746 54.1362557,23.630501 55.480081,23.089624 C57.9406624,22.0995666 58.4651792,19.4669441 58.4651792,19.4669441" id="Fill-439" fill="#ECC6AD"></path>
                    <path d="M54.4626512,14.4141961 C54.4626512,14.4141961 54.514439,15.2394654 54.6950321,15.8534339 C54.8756252,16.4674024 56.3456002,17.620919 52.4216833,20.4528818 C49.8601822,22.3014319 48.5004222,21.5652013 48.5004222,21.5652013 C48.5004222,21.5652013 45.8074599,19.4535219 46.6865235,15.7298429 C47.5655871,12.0061639 54.4626512,14.4141961 54.4626512,14.4141961" id="Fill-441" fill="#ECC6AD"></path>
                    <path d="M45.9334767,16.3339772 C42.6602262,10.4946319 44.3453195,4.14896198 44.3453195,4.14896198 L47.6066189,3.99480539 L50.5797661,5.59351554 L56.6389312,5.32241257 C56.6389312,5.32241257 55.9351492,9.68796771 56.0108389,10.7444719 C56.0852008,11.8009761 56.1861205,11.0594298 55.0733481,12.6368769 C54.6006191,13.3066607 54.4638463,13.987076 54.4598626,14.5478871 C53.4413705,15.6163517 52.0736431,16.8442887 50.9024436,17.171207 C49.2146945,17.6443082 47.6889482,18.0815282 45.9334767,16.3339772" id="Fill-443" fill="#FAD1B2"></path>
                    <path d="M56.3044356,11.084148 C57.3123046,11.3007646 57.9178227,4.718544 56.7227211,4.12716743 C55.752033,3.64476362 53.0245456,6.13917671 53.0457919,6.69334307 C53.0511034,6.82224987 53.1812367,6.7717503 53.554374,6.70796136 C55.5608168,6.3597801 55.8901337,7.62758516 55.8901337,7.62758516 C55.8901337,7.62758516 54.0961534,10.6083889 56.3044356,11.084148" id="Fill-445" fill="#996633"></path>
                    <path d="M52.9307965,5.94395599 C52.9307965,5.94395599 48.8647953,5.75258919 45.5025762,6.46755682 C42.140357,7.18119551 44.4030827,2.99371782 45.4282143,2.34121018 C46.4533459,1.68870255 50.9469279,-2.78316748 56.7219244,4.12597139" id="Fill-447" fill="#996633"></path>
                    <path d="M53.7333737,30.4915323 C53.7665709,30.7081489 53.6178472,30.9101472 53.401401,30.9433706 C53.1849548,30.9752651 52.9831154,30.8264242 52.9499182,30.6111366 C52.9167209,30.39452 53.0654447,30.1925217 53.2818908,30.1592983 C53.498337,30.1260749 53.7001764,30.2749157 53.7333737,30.4915323" id="Fill-449" fill="#CDBFA2"></path>
                    <path d="M45.0524213,30.6870188 C45.0869464,30.911609 44.9329111,31.1215809 44.7084976,31.1548043 C44.4840841,31.1893567 44.2742773,31.0352001 44.2397522,30.8106099 C44.2065549,30.5860197 44.3605902,30.3760478 44.5850038,30.3428244 C44.8094173,30.308272 45.0178961,30.4624286 45.0524213,30.6870188" id="Fill-451" fill="#CDBFA2"></path>
                    <path d="M44.2620607,16.6800322 C43.6631821,15.8614075 42.8770708,15.3059122 42.206486,15.2221893 L36.2110597,12.8686434 C35.490015,12.4513575 34.7331174,12.4500285 34.2577325,12.917814 C33.5074743,13.6540446 33.6854116,15.3231884 34.6534439,16.6468088 C35.1527308,17.328553 35.7635605,17.7830492 36.341193,17.9651134 L42.8943334,20.5259733 C43.0257945,20.5897622 43.1559278,20.6415907 43.2834053,20.678801 L43.311291,20.6894324 L43.3099631,20.6854456 C43.8265126,20.8276418 44.3111927,20.7505635 44.6591,20.4090269 C45.4080304,19.6727963 45.230093,18.0036526 44.2620607,16.6800322" id="Fill-453" fill="#494949"></path>
                    <path d="M49.3015386,12.6399335 C48.7026599,11.8213089 47.9417786,11.3282736 47.2698659,11.2445506 L41.2306192,8.8498077 C40.5082466,8.43252176 39.7725952,8.40992985 39.2972104,8.87771536 C38.5469521,9.61394597 38.7248895,11.2830897 39.6929218,12.6067101 C40.1922087,13.2884543 40.8030384,13.7429505 41.3806708,13.9250147 L47.9338112,16.4858746 C48.0652724,16.5496635 48.1954057,16.6014921 48.3228832,16.6387023 L48.3507689,16.6493338 L48.349441,16.645347 C48.8659904,16.7875431 49.3506705,16.7104648 49.6985779,16.3689282 C50.4475082,15.6326976 50.2695709,13.9635539 49.3015386,12.6399335" id="Fill-455" fill="#E9D191"></path>
                    <path d="M49.5308653,10.6680581 C50.0660052,11.4441568 50.0952188,12.3584648 49.5972598,12.707975 C49.0993008,13.0588142 48.2614018,12.7132908 47.7262619,11.9358631 C47.191122,11.1597645 47.2097124,10.2135619 47.6532279,9.90259089 C48.0967434,9.5902909 48.9957254,9.8919594 49.5308653,10.6680581" id="Fill-457" fill="#5E5E5E"></path>
                    <polyline id="Fill-459" fill="#5E5E5E" points="49.5379031 12.7446537 48.4543443 13.8689336 46.0760922 11.5539269 47.5447392 10.0004006"></polyline>
                    <path d="M44.8475277,8.62415435 C45.3826677,9.40025304 45.4118813,10.3145611 44.9139223,10.6640713 C44.4159633,11.0149104 43.5780643,10.669387 43.0429243,9.8919594 C42.5077844,9.11586071 42.5263749,8.1696582 42.9698903,7.85868715 C43.4134058,7.54638716 44.3123878,7.84805566 44.8475277,8.62415435" id="Fill-461" fill="#5E5E5E"></path>
                    <path d="M45.0010319,8.51358686 C44.465892,7.73748817 43.56691,7.43581967 43.1233945,7.74811966 C42.9972449,7.83715838 42.8047007,7.95144689 42.7502572,8.12553752 C43.2282979,8.00593327 44.0569016,8.34879878 44.5150239,9.01459578 C44.9040959,9.57806469 45.0222781,10.2106383 44.8695707,10.6518451 C44.9399489,10.6292532 45.0063435,10.5973587 45.0674264,10.5535038 C45.5653854,10.2039936 45.5361718,9.28968555 45.0010319,8.51358686" id="Fill-463" fill="#494949"></path>
                    <polyline id="Fill-465" fill="#5E5E5E" points="44.8545656 10.7008828 43.7710068 11.8251628 41.3927546 9.51015606 42.8614017 7.95662974"></polyline>
                    <path d="M48.312924,11.9704155 C48.9503115,12.895355 49.0180339,13.9757801 48.4895334,14.4608418 C48.4603199,14.4874205 48.4297784,14.5126703 48.3965811,14.5352622 C47.7698167,14.976469 46.7167994,14.5419069 46.0448867,13.5651388 C45.3716462,12.5883708 45.3344652,11.44017 45.9599017,11.0002921 C46.5866661,10.5590853 47.6396834,10.9936474 48.312924,11.9704155" id="Fill-467" fill="#494949"></path>
                    <path d="M48.2223618,12.0339386 C48.8092895,12.8857867 48.8703725,13.8798309 48.3843645,14.3263534 C48.3578067,14.3502743 48.329921,14.3741951 48.2993795,14.3941292 C47.723075,14.7994547 46.7537148,14.4007739 46.1349177,13.5010841 C45.5161207,12.6027233 45.4815955,11.5462191 46.0579001,11.1408936 C46.6342046,10.735568 47.6035648,11.1355778 48.2223618,12.0339386" id="Fill-469" fill="#494949"></path>
                    <path d="M48.2223618,12.0339386 C47.7801743,11.3920625 47.1600493,11.006671 46.6315488,10.985408 C46.5664822,11.0106578 46.5027434,11.0412234 46.4443163,11.0824204 C45.8680117,11.4877459 45.9025369,12.5442501 46.5226618,13.4426109 C46.9635215,14.0844871 47.5836464,14.4698785 48.1121469,14.4911415 C48.1785415,14.4658917 48.2409523,14.4353262 48.2993795,14.3941292 C48.329921,14.3741951 48.3578067,14.3502743 48.3843645,14.3263534 C48.8703725,13.8798309 48.8092895,12.8857867 48.2223618,12.0339386" id="Fill-471" fill="#494949"></path>
                    <path d="M48.2223618,12.0339386 C47.8133715,11.4399042 47.2516738,11.069131 46.7497311,11.0000263 C46.7178617,11.0159736 46.6833366,11.0292629 46.6527951,11.0505259 C46.0764905,11.4558514 46.1110157,12.5123556 46.7298127,13.4107164 C47.140131,14.0060798 47.7018287,14.3755241 48.2024435,14.4446287 C48.2343129,14.4286815 48.268838,14.4167211 48.2993795,14.3941292 C48.329921,14.3741951 48.3578067,14.3502743 48.3843645,14.3263534 C48.8703725,13.8798309 48.8092895,12.8857867 48.2223618,12.0339386" id="Fill-473" fill="#494949"></path>
                    <path d="M48.1476016,11.5622992 C48.1476016,11.5622992 41.899876,9.02934697 40.7565622,8.63465294 C39.6132483,8.23995892 39.1577818,9.03997846 39.1577818,9.03997846 L34.4132285,12.794223 C35.111699,12.3065034 35.864613,12.6746187 36.4807543,13.0041949 L42.895794,15.4879765 C43.7257257,15.7750267 46.2500458,18.5644636 44.5742478,20.4980656 L49.6985779,16.3690611 C50.1248308,16.1564314 50.9560903,13.6527157 48.1476016,11.5622992" id="Fill-475" fill="#5E5E5E"></path>
                    <path d="M43.1232617,16.7389041 C43.8934383,17.8565393 43.9359308,19.1708571 43.2188698,19.6745239 C42.5018089,20.1781907 41.2974121,19.6811686 40.5272355,18.5635333 C39.7583868,17.4458981 39.7145664,16.1315802 40.4316273,15.6279135 C41.1486883,15.1242467 42.3530851,15.6212688 43.1232617,16.7389041" id="Fill-477" fill="#5E5E5E"></path>
                    <polyline id="Fill-479" fill="#5E5E5E" points="43.1334865 19.7266182 41.5745428 21.3452624 38.1512407 18.0136196 40.2559474 15.7876516"></polyline>
                    <path d="M41.2913038,18.5781516 C42.0203157,19.6373137 42.0973334,20.8732243 41.4931431,21.4273907 C41.4599459,21.4579562 41.4240928,21.4871928 41.3869119,21.5137715 C40.6698509,22.0174383 39.4654541,21.5204162 38.6952775,20.4027809 C37.9264288,19.2851456 37.8826084,17.9708278 38.5996694,17.467161 C39.3167303,16.9634943 40.5211272,17.4605164 41.2913038,18.5781516" id="Fill-481" fill="#494949"></path>
                    <path d="M41.1877283,18.6509773 C41.859641,19.6250875 41.9300192,20.7626568 41.373633,21.2729683 C41.3430915,21.3022049 41.3098942,21.3274547 41.2753691,21.3527045 C40.6167353,21.8151742 39.5079466,21.3580202 38.798853,20.3307526 C38.0910873,19.302156 38.0512505,18.0928242 38.7112122,17.6290255 C39.369846,17.1652268 40.4799626,17.6223808 41.1877283,18.6509773" id="Fill-483" fill="#5E5E5E"></path>
                    <path d="M41.1877283,18.6509773 C40.6818019,17.9174046 39.9727083,17.4761978 39.3685181,17.450948 C39.2928283,17.4801846 39.2211222,17.514737 39.1547277,17.5612497 C38.494766,18.0250484 38.5346027,19.2343803 39.2423685,20.2629768 C39.7482948,20.9965496 40.4573884,21.4377564 41.0615787,21.4630062 C41.1372684,21.4337696 41.2089745,21.3992172 41.2753691,21.3527045 C41.3098942,21.3274547 41.3430915,21.3022049 41.373633,21.2729683 C41.9300192,20.7626568 41.859641,19.6250875 41.1877283,18.6509773" id="Fill-485" fill="#8ACDDC"></path>
                    <path d="M41.1877283,18.6509773 C40.7189829,17.970562 40.0762838,17.5466314 39.502635,17.4682242 C39.4654541,17.4868293 39.4269453,17.5014476 39.3924201,17.5253684 C38.7324585,17.9891671 38.7722952,19.198499 39.4800609,20.2270956 C39.9488063,20.9075109 40.5915054,21.3301125 41.1651541,21.4098487 C41.2023351,21.3912436 41.2408439,21.3766253 41.2753691,21.3527045 C41.3098942,21.3274547 41.3430915,21.3022049 41.373633,21.2729683 C41.9300192,20.7626568 41.859641,19.6250875 41.1877283,18.6509773" id="Fill-487" fill="#C8E6EA"></path>
                    <path d="M38.2269305,14.5195807 C38.9971071,15.637216 39.0395996,16.9515338 38.3225386,17.4552006 C37.6054777,17.9588674 36.4010808,17.4618453 35.6309042,16.34421 C34.8620555,15.2265748 34.8182352,13.9122569 35.5352961,13.4085901 C36.2523571,12.9049234 37.4567539,13.4019455 38.2269305,14.5195807" id="Fill-489" fill="#5E5E5E"></path>
                    <polyline id="Fill-491" fill="#5E5E5E" points="38.2371552 17.5072949 36.6782116 19.1259391 33.2549095 15.7942963 35.3596162 13.5683283"></polyline>
                    <path d="M36.3949725,16.3588283 C37.1239845,17.4179904 37.2010022,18.653901 36.5968119,19.2080674 C36.5636146,19.2386329 36.5277616,19.2678695 36.4905807,19.2944482 C35.7735197,19.798115 34.5691229,19.3010929 33.7989463,18.1834576 C33.0300976,17.0658223 32.9862772,15.7515045 33.7033382,15.2478377 C34.4203991,14.7441709 35.6247959,15.2411931 36.3949725,16.3588283" id="Fill-493" fill="#494949"></path>
                    <path d="M36.2913971,16.431654 C36.9633097,17.4057642 37.0336879,18.5433335 36.4773017,19.053645 C36.4467603,19.0828816 36.413563,19.1081314 36.3790378,19.1333811 C35.7204041,19.5958509 34.6116154,19.1386969 33.9025218,18.1114293 C33.194756,17.0828327 33.1549193,15.8735009 33.814881,15.4097022 C34.4735147,14.9459034 35.5836313,15.4030575 36.2913971,16.431654" id="Fill-495" fill="#5E5E5E"></path>
                    <path d="M36.2913971,16.431654 C35.7854707,15.6980813 35.0763771,15.2568745 34.4721869,15.2316247 C34.3964971,15.2608613 34.324791,15.2954136 34.2583965,15.3419264 C33.5984348,15.8057251 33.6382715,17.015057 34.3460372,18.0436535 C34.8519636,18.7772263 35.5610572,19.2184331 36.1652474,19.2436828 C36.2409372,19.2144462 36.3126433,19.1798939 36.3790378,19.1333811 C36.413563,19.1081314 36.4467603,19.0828816 36.4773017,19.053645 C37.0336879,18.5433335 36.9633097,17.4057642 36.2913971,16.431654" id="Fill-497" fill="#8ACDDC"></path>
                    <path d="M36.2913971,16.431654 C35.8226517,15.7512387 35.1799526,15.3273081 34.6063038,15.2489009 C34.5691229,15.267506 34.530614,15.2821243 34.4960889,15.3060451 C33.8361272,15.7698438 33.8759639,16.9791757 34.5837297,18.0077723 C35.0524751,18.6881875 35.6951741,19.1107892 36.2688229,19.1905254 C36.3060039,19.1719203 36.3445127,19.157302 36.3790378,19.1333811 C36.413563,19.1081314 36.4467603,19.0828816 36.4773017,19.053645 C37.0336879,18.5433335 36.9633097,17.4057642 36.2913971,16.431654" id="Fill-499" fill="#C8E6EA"></path>
                    <path d="M49.5308653,10.6680581 C48.9957254,9.8919594 48.0967434,9.5902909 47.6532279,9.90259089 C47.5270783,9.99162961 47.3345342,10.1059181 47.2800906,10.2800087 C47.7581313,10.1604045 48.586735,10.50327 49.0448573,11.169067 C49.4339293,11.7325359 49.5521116,12.3651095 49.3994041,12.8063163 C49.4697823,12.7837244 49.5361769,12.7518299 49.5972598,12.707975 C50.0952188,12.3584648 50.0660052,11.4441568 49.5308653,10.6680581" id="Fill-501" fill="#494949"></path>
                    <path d="M54.6555937,35.8668131 C54.7897107,36.2389152 55.1880779,36.6402539 55.4124914,37.0429216 C55.8984994,37.9147037 55.8506953,37.8309807 56.0060585,38.2961083 C56.2118816,38.9100768 57.1719465,38.8582483 57.6499872,38.4210283 L60.1304869,36.0276144 C60.858171,33.5132673 64.707726,28.1137998 63.8127277,25.655268 L65.035715,26.6200756 C64.039797,24.657237 62.6455118,22.9243043 60.9418281,21.5329082 L60.4664433,21.1435299 L59.3656219,25.5954659 C59.3656219,25.5954659 58.4360984,30.3756491 57.5251654,31.8295052 C57.5251654,31.8295052 49.588363,15.483591 48.9841727,15.4131574 C48.3799825,15.3440527 46.4226716,17.043762 46.4226716,17.043762 C46.4226716,17.043762 54.1656021,34.018263 54.6555937,35.8668131" id="Fill-503" fill="#ECC6AD"></path>
                    <path d="M53.8366836,36.5380588 C53.9708005,36.9101609 54.3691677,37.3114996 54.5935812,37.7141672 C55.0795892,38.5859493 55.0317852,38.5022263 55.1871484,38.967354 C55.3929714,39.5813225 56.3530364,39.529494 56.831077,39.092274 L59.3115767,36.69886 C60.0392608,34.1845129 63.8888159,28.7850455 62.9938175,26.3265137 L64.2168048,27.2913213 C63.2208869,25.3284826 61.8266017,23.5955499 60.1229179,22.2041538 L59.6475331,21.8147755 L58.5467117,26.2667115 C58.5467117,26.2667115 57.6171883,31.0468947 56.7062553,32.5007508 C56.7062553,32.5007508 48.7694528,16.1548366 48.1652625,16.084403 C47.5610723,16.0139694 45.6037615,17.7150076 45.6037615,17.7150076 C45.6037615,17.7150076 53.3466919,34.6895086 53.8366836,36.5380588" id="Fill-505" fill="#ECC6AD"></path>
                    <path d="M53.9996157,36.2860925 C54.1337327,36.6581946 54.5320999,37.0595333 54.7565134,37.4622009 C55.2425214,38.333983 55.1947173,38.2502601 55.3500805,38.7153877 C55.5559036,39.3293562 56.5159685,39.2775277 56.9940092,38.8403077 L59.4745089,36.4468937 C60.202193,33.9325466 66.4379676,27.0220788 65.5429692,24.5622181 C64.5470513,22.5993794 63.1527661,20.8664467 61.4490823,19.4750506 L60.9736975,19.0856723 L58.8995323,21.3953633 L55.9821565,26.0134163 C55.9821565,26.0134163 57.7801205,30.7949284 56.8691875,32.2487846 C56.8691875,32.2487846 49.0279931,15.7832661 48.4238029,15.7141614 C47.8182847,15.6437278 45.8623018,17.344766 45.8623018,17.344766 C45.8623018,17.344766 53.5096241,34.4375423 53.9996157,36.2860925" id="Fill-507" fill="#FAD1B2"></path>
                    <path d="M48.9841727,15.4132903 C48.9841727,15.4132903 48.9124666,12.964061 46.6537246,12.5653802 C46.6537246,12.5653802 45.8649576,12.5361436 46.6138879,13.2285193 C47.316342,13.8783691 46.9843694,13.7308572 46.9843694,13.7308572 C46.9843694,13.7308572 45.7587263,12.6690372 45.0854857,12.8045887 C44.5715921,12.9069168 43.3950809,13.5767006 43.4508523,14.150801 C43.5052959,14.7249014 45.6458556,16.8578438 45.8623018,17.3442345" id="Fill-509" fill="#FAD1B2"></path>
                    <path d="M36.4850035,10.7253352 C36.4850035,10.7253352 38.1568179,8.67212894 39.6706132,9.22097956 C39.6706132,9.22097956 40.1114729,9.87481613 39.1288338,9.60371316 C38.2072777,9.3512153 38.5445619,9.90538166 38.5445619,9.90538166 C38.5445619,9.90538166 40.0928824,10.3851276 40.3345585,11.0296616 C40.5178074,11.520039 40.572251,12.872896 40.0557015,13.1307096 C39.5404799,13.3871943 35.8064514,12.0356662 35.2792788,12.1087577" id="Fill-511" fill="#FAD1B2"></path>
                    <path d="M49.8532772,46.6237536 C49.8692118,46.7300685 49.7961779,46.8297387 49.6899466,46.8470149 C49.5823875,46.8629621 49.4827957,46.7885417 49.466861,46.6822268 C49.4509263,46.5759119 49.5239603,46.4762417 49.6301915,46.4602945 C49.7377507,46.4430183 49.8373425,46.5174387 49.8532772,46.6237536" id="Fill-513" fill="#CDBFA2"></path>
                </g>
            </g>
        </g>
    </g>
</svg>