<?xml version="1.0" encoding="UTF-8"?>
<svg width="82px" height="135px" viewBox="0 0 82 135" version="1.1" xmlns="http://www.w3.org/2000/svg" xmlns:xlink="http://www.w3.org/1999/xlink">
    <!-- Generator: Sketch 48.2 (47327) - http://www.bohemiancoding.com/sketch -->
    <title>04-top</title>
    <desc>Created with Sketch.</desc>
    <defs>
        <polygon id="path-1" points="75.554337 0.195509933 75.554337 51.2253278 0.163875947 51.2253278 0.163875947 0.195509933 75.554337 0.195509933"></polygon>
        <polygon id="path-3" points="75.554337 0.195509933 75.554337 51.2253278 0.163875947 51.2253278 0.163875947 0.195509933 75.554337 0.195509933"></polygon>
    </defs>
    <g id="Desktop-HD-Copy-17" stroke="none" stroke-width="1" fill="none" fill-rule="evenodd" transform="translate(-603.000000, -1733.000000)">
        <g id="Illustration" transform="translate(274.000000, 1643.000000)">
            <g id="Top">
                <g id="04-top" transform="translate(328.962988, 90.367656)">
                    <g id="Group-517" transform="translate(6.470146, 83.128652)">
                        <mask id="mask-2" fill="white">
                            <use xlink:href="#path-1"></use>
                        </mask>
                        <g id="Clip-516"></g>
                        <path d="M9.65829417,47.9362109 L6.33856752,46.208594 C-1.89435458,41.424424 -1.89435458,29.4639989 6.33856752,24.6798289 L44.3494377,1.88990348 C48.2003206,-0.369287916 52.8479379,-0.369287916 56.6988208,1.88990348 L70.7744618,9.59773295 C77.148337,13.3187541 77.148337,22.4884133 70.7744618,26.2094344 L34.3570604,47.9362109 C26.7880837,52.3217001 17.36006,52.3217001 9.65829417,47.9362109" id="Fill-515" fill="#CBB481" mask="url(#mask-2)"></path>
                    </g>
                    <g id="Group-520" transform="translate(6.470146, 77.812907)">
                        <mask id="mask-4" fill="white">
                            <use xlink:href="#path-3"></use>
                        </mask>
                        <g id="Clip-519"></g>
                        <path d="M10.0176214,48.0958162 L6.69789473,46.3681992 C-1.53502736,41.5840292 -1.53502736,29.6236042 6.69789473,24.8394341 L44.7087649,2.04950871 C48.5596478,-0.209682689 53.2072651,-0.209682689 57.058148,2.04950871 L71.133789,9.75733817 C77.5076642,13.4783593 77.5076642,22.6480185 71.133789,26.3690396 L34.7163877,48.0958162 C27.1474109,52.4813053 17.7193872,52.4813053 10.0176214,48.0958162" id="Fill-518" fill="#FEFCEE" mask="url(#mask-4)"></path>
                    </g>
                    <path d="M35.2893708,104.321884 C34.7754771,104.953128 34.3545357,105.67607 34.0424814,106.496023 C33.6401306,102.873343 32.6229663,97.0712083 30.0734163,92.1421842 L22.4446844,96.7150534 C26.056547,99.5961869 29.8184612,103.520535 33.5073415,108.852227 C33.4900789,109.024989 33.4688327,109.192435 33.4595374,109.370512 C32.9961036,108.942595 32.5379813,108.578466 32.0825148,108.24889 C29.1664669,104.895984 23.9850376,99.8779213 18.5247512,99.0659414 L12.8081819,102.493268 C7.67721238,105.4754 5.74645936,111.245641 7.01193916,116.327493 C7.52450495,115.635117 8.06097278,114.941412 8.62532631,114.258339 C8.65586779,113.321439 8.68906506,112.615774 8.68906506,112.615774 L9.49111102,113.24569 C10.7313609,111.835688 12.077842,110.500108 13.5146197,109.342604 C13.5464891,107.967155 13.6062442,106.733903 13.6062442,106.733903 L15.2780585,108.048221 C19.0944163,105.523242 23.4538813,104.420225 28.0961871,106.468116 C19.3480434,104.947813 12.7869356,118.922905 12.7869356,118.922905 C13.5411775,117.324195 17.9404793,116.586635 22.655819,115.922167 C21.0796128,118.126872 19.8858391,121.015979 19.4954393,124.643975 L22.4526518,126.003476 L19.3732733,126.394184 C19.3626502,126.68655 19.3679617,126.990876 19.3679617,127.291216 C23.0541862,128.741085 26.9927099,129.279304 30.854216,128.916504 C33.2497307,125.381534 35.3902905,121.501041 36.1511718,118.060425 C37.4432094,120.537562 39.3420931,123.066528 41.3777494,125.421402 L52.1270243,119.007957 C50.4963746,113.527424 47.151418,110.179834 43.7891989,108.671492 C44.6430326,108.620992 45.5433424,108.613018 46.4888006,108.666176 L47.5856383,106.258144 L47.5856383,108.752557 C49.9413163,108.991765 52.5346868,109.608392 55.3046667,110.792474 L56.0004814,109.262868 L56.0004814,111.087497 C57.5554414,111.798478 59.1661727,112.716773 60.8127571,113.826435 L66.3341265,110.532002 C62.4035702,103.398273 56.2434854,96.7363164 47.6281308,100.012144 C46.1701068,100.034736 44.5540639,100.147695 42.9459883,100.438732 C44.3150436,99.1044805 45.6748036,97.9137538 47.0106616,96.8798415 L47.0106616,93.998708 L48.6718528,95.661207 C49.9067911,94.7973986 51.1178274,94.0531943 52.2943386,93.4099893 L52.2943386,90.9660757 L53.903742,92.5780753 C62.5576055,88.4038869 69.0018588,89.6836524 69.0018588,89.6836524 C43.7838873,73.5171446 37.0700721,93.4086603 35.2893708,104.321884" id="Fill-521" fill-opacity="0.05" fill="#020203"></path>
                    <path d="M41.7490277,110.337047 C41.7490277,112.204202 39.0255239,113.71919 35.6672884,113.71919 C32.3077251,113.71919 29.5842213,112.204202 29.5842213,110.337047 C29.5842213,108.469892 32.3077251,106.954905 35.6672884,106.954905 C39.0255239,106.954905 41.7490277,108.469892 41.7490277,110.337047" id="Fill-523" fill-opacity="0.1" fill="#020203"></path>
                    <path d="M32.6301369,110.378244 C32.6301369,111.356341 35.9511915,113.311206 39.4674459,110.378244 C39.4674459,106.663868 38.0027825,100.993297 39.4674459,80.5622336 L40.9334372,60.1311698 C40.9334372,60.1311698 39.17531,35.3013274 35.5607916,29.1417085 C31.9462732,22.9834185 36.7811231,46.7687171 37.2206549,56.2214397 C37.2206549,56.2214397 32.6301369,105.490417 32.6301369,110.378244" id="Fill-525" fill="#916743"></path>
                    <path d="M34.9843543,27.9236056 C34.9830264,27.5395431 34.7718918,26.8591278 34.4385912,25.9767142 C34.5673966,26.7262342 34.696202,27.4810699 34.8449258,28.2717869 C34.8648441,28.3767729 34.9843543,28.104341 34.9843543,27.9236056" id="Fill-527" fill="#61B346"></path>
                    <path d="M65.1153885,29.7441152 C65.1432742,29.7733518 65.1764714,29.7986016 65.2030292,29.8291671 C65.2030292,29.8291671 65.1831109,29.7972727 65.1153885,29.7441152" id="Fill-529" fill="#61B346"></path>
                    <path d="M34.2826969,30.9255394 C36.1457274,38.4685808 49.0169716,16.7816724 53.4295523,17.4607587 C53.4295523,17.4607587 30.0560209,13.8088423 34.2826969,30.9255394" id="Fill-531" fill="#579D3E"></path>
                    <path d="M34.8449258,28.4287343 C34.8449258,28.4287343 39.5629213,25.3907863 46.8224995,25.7947829 L47.9180093,23.3867506 L47.9180093,25.8811637 C50.2736873,26.1203722 52.8683857,26.7369986 55.6383656,27.9197517 L56.3341803,26.3914752 L56.3341803,28.2161045 C61.1743418,30.4301121 66.515118,34.4076178 72.0139132,41.1878499 C72.0139132,41.1878499 60.5781189,-5.01792988 34.8449258,28.4287343" id="Fill-533" fill="#61B346"></path>
                    <path d="M0.999648616,44.131975 C0.999648616,44.131975 4.0298951,37.3517429 8.95902523,31.3874776 C8.98956672,30.4492487 9.02276398,29.7435837 9.02276398,29.7435837 L9.82348205,30.3734994 C11.0637319,28.9634982 12.4115409,27.6292463 13.8483186,26.4717429 C13.880188,25.0949651 13.9399431,23.8630413 13.9399431,23.8630413 L15.6117574,25.1760302 C21.1450778,21.5148112 27.8177284,20.8397117 34.8449258,28.4292658 C34.8449258,28.4292658 9.49150939,-7.93574201 0.999648616,44.131975" id="Fill-535" fill="#61B346"></path>
                    <path d="M34.9843543,27.7035338 C40.1896857,33.4697876 15.0274855,32.0119447 13.1206346,36.0519105 C13.1206346,36.0519105 23.1740947,14.6201578 34.9843543,27.7035338" id="Fill-537" fill="#579D3E"></path>
                    <path d="M50.0406425,39.0307208 L52.803983,37.3097485 C49.5360441,23.5446283 35.7512111,22.1027326 34.8455897,28.4284685 C34.2135138,32.8418653 38.1161844,38.5549617 42.3946481,43.3471053 L45.8365407,43.3471053 L43.6455211,44.7119227 C48.0116256,49.3605412 52.3525002,52.8436828 52.3525002,52.8436828 C53.6272752,47.368466 53.7534248,42.7982547 53.1452509,39.0307208 L50.0406425,39.0307208 Z" id="Fill-539" fill="#61B346"></path>
                    <path d="M22.7862179,43.1320834 L19.8290054,41.7725818 C21.3414728,27.705793 34.8368256,24.5402672 36.5298862,30.702544 C37.710381,35.0003234 34.5566407,41.1599422 30.9142366,46.4517659 L27.4989018,46.884999 L29.8439567,47.9627662 C26.0966493,53.1243541 22.2285038,57.1257807 22.2285038,57.1257807 C20.2765045,51.8552201 19.5767062,47.3368373 19.7068394,43.5227907 L22.7862179,43.1320834 Z" id="Fill-541" fill="#61B346"></path>
                    <path d="M0.287633644,6.24440502 C0.287633644,6.24440502 6.73188702,4.96463954 15.3857504,9.13749894 L16.9951539,7.52682837 L16.9951539,9.97074188 C18.1729929,10.612618 19.3827013,11.3581512 20.6176396,12.2219597 L22.2788309,10.5594606 L22.2788309,13.4405941 C26.3010117,16.5529625 30.5276876,20.9450963 34.6388371,27.1352807 C34.6388371,27.1352807 33.8726442,-15.2870179 0.287633644,6.24440502" id="Fill-543" fill="#61B346"></path>
                    <path d="M69.3356906,6.81225942 C69.3356906,6.81225942 62.8914372,5.53249394 54.2375737,9.70535334 L52.6281703,8.09468277 L52.6281703,10.5385963 C51.4503313,11.1804724 50.2406229,11.9260056 49.0056845,12.7898141 L47.3444933,11.127315 L47.3444933,14.0084485 C43.3223125,17.1208169 39.0956366,21.5129507 34.9844871,27.7031351 C34.9844871,27.7031351 35.75068,-14.7191635 69.3356906,6.81225942" id="Fill-545" fill="#61B346"></path>
                </g>
            </g>
        </g>
    </g>
</svg>