<?xml version="1.0" encoding="UTF-8"?>
<svg width="121px" height="85px" viewBox="0 0 121 85" version="1.1" xmlns="http://www.w3.org/2000/svg" xmlns:xlink="http://www.w3.org/1999/xlink">
    <!-- Generator: Sketch 48.2 (47327) - http://www.bohemiancoding.com/sketch -->
    <title>05-top</title>
    <desc>Created with Sketch.</desc>
    <defs></defs>
    <g id="Desktop-HD-Copy-17" stroke="none" stroke-width="1" fill="none" fill-rule="evenodd" transform="translate(-494.000000, -1856.000000)">
        <g id="Illustration" transform="translate(274.000000, 1643.000000)">
            <g id="Top">
                <g id="05-top" transform="translate(220.429850, 213.958714)">
                    <path d="M9.68032291,79.7790915 L6.36059626,78.0514746 C-1.87232583,73.2673046 -1.87232583,61.3068795 6.36059626,56.5227095 L89.1944156,7.42383582 C93.0452985,5.16464442 97.6929159,5.16464442 101.543799,7.42383582 L115.61944,15.1316653 C121.993315,18.8526864 121.993315,28.0223456 115.61944,31.7433667 L34.3790892,79.7790915 C26.8101124,84.1645807 17.3820887,84.1645807 9.68032291,79.7790915" id="Fill-21" fill="#CBB481"></path>
                    <path d="M34.3790892,79.7792244 L37.8847205,77.7060841 C38.790342,73.8295774 37.2924813,69.4759827 33.3685644,67.1848969 L19.2929234,59.4770674 C15.4420405,57.217876 10.7944232,57.217876 6.94354026,59.4770674 L1.07559143,62.6253171 C-1.07559143,68.0433896 0.68386369,74.753188 6.36059626,78.0516075 L9.68032291,79.7792244 C17.3820887,84.1647136 26.8101124,84.1647136 34.3790892,79.7792244" id="Fill-23" fill="#517D84"></path>
                    <path d="M9.49441822,74.0496493 L6.17469157,72.3220323 C-2.05823052,67.5378623 -2.05823052,55.5774373 6.17469157,50.7932672 L89.0085109,1.69439355 C92.8593939,-0.564797849 97.5070112,-0.564797849 101.357894,1.69439355 L115.433535,9.40222301 C121.80741,13.1232441 121.80741,22.2929033 115.433535,26.0139244 L34.1931845,74.0496493 C26.6242077,78.4351384 17.196184,78.4351384 9.49441822,74.0496493" id="Fill-25" fill="#FEFCEE"></path>
                    <path d="M21.8813807,57.3580788 C13.2952397,56.2936009 8.29307554,54.2085002 5.38101132,51.8695726 C-1.83607442,57.0072396 -1.52402011,68.1543558 6.36099463,72.7351985 L9.68072128,74.4628155 C17.3824871,78.8483047 26.8105108,78.8483047 34.3794876,74.4628155 L37.4017667,72.6767254 C30.6082781,63.0658594 37.7443625,59.3249042 21.8813807,57.3580788" id="Fill-261" fill="#BEDBE4"></path>
                    <path d="M6.36059626,72.7357301 L9.68032291,74.4633471 C16.9638032,78.6109567 25.7889645,78.8302311 33.1282162,75.1331309 C27.7037828,65.8465253 33.6607003,62.0577284 17.0912807,60.0031932 C10.0295582,59.1287532 5.1469042,57.6323712 1.76476669,55.8608993 C-1.3650716,61.4716676 0.164658442,69.1356422 6.36059626,72.7357301" id="Fill-263" fill="#8ACDDC"></path>
                </g>
            </g>
        </g>
    </g>
</svg>