<?xml version="1.0" encoding="UTF-8"?>
<svg width="51px" height="42px" viewBox="0 0 51 42" version="1.1" xmlns="http://www.w3.org/2000/svg" xmlns:xlink="http://www.w3.org/1999/xlink">
    <!-- Generator: Sketch 48.2 (47327) - http://www.bohemiancoding.com/sketch -->
    <title>06-top</title>
    <desc>Created with Sketch.</desc>
    <defs></defs>
    <g id="Desktop-HD-Copy-17" stroke="none" stroke-width="1" fill="none" fill-rule="evenodd" transform="translate(-446.000000, -1924.000000)">
        <g id="Illustration" transform="translate(274.000000, 1643.000000)">
            <g id="Top">
                <g id="06-top" transform="translate(172.271890, 281.734456)">
                    <path d="M9.71924264,37.6686942 L6.39951599,35.9410772 C-1.83340611,31.1569072 -1.83340611,19.1964822 6.39951599,14.4123122 L19.2800554,7.50184437 C23.1309383,5.24265297 27.7785556,5.24265297 31.6294385,7.50184437 L45.7050795,15.2096738 C52.0789547,18.930695 52.0789547,28.1003541 45.7050795,31.8213753 L34.4180089,37.6686942 C26.8490321,42.0541834 17.4210085,42.0541834 9.71924264,37.6686942" id="Fill-17" fill="#517D84"></path>
                    <path d="M9.84831361,31.8612434 L6.52858696,30.1336264 C-1.70433513,25.3494564 -1.70433513,13.3890314 6.52858696,8.60486134 L19.4091264,1.69439355 C23.2600093,-0.564797849 27.9076266,-0.564797849 31.7585095,1.69439355 L45.8341505,9.40222301 C52.2080257,13.1232441 52.2080257,22.2929033 45.8341505,26.0139244 L34.5470799,31.8612434 C26.9781031,36.2467325 17.5500794,36.2467325 9.84831361,31.8612434" id="Fill-19" fill="#8ACDDC"></path>
                </g>
            </g>
        </g>
    </g>
</svg>